G04 #@! TF.GenerationSoftware,KiCad,Pcbnew,(5.1.2)-1*
G04 #@! TF.CreationDate,2021-12-05T07:22:55+09:00*
G04 #@! TF.ProjectId,ESP32C3_downloader,45535033-3243-4335-9f64-6f776e6c6f61,rev?*
G04 #@! TF.SameCoordinates,Original*
G04 #@! TF.FileFunction,Paste,Top*
G04 #@! TF.FilePolarity,Positive*
%FSLAX46Y46*%
G04 Gerber Fmt 4.6, Leading zero omitted, Abs format (unit mm)*
G04 Created by KiCad (PCBNEW (5.1.2)-1) date 2021-12-05 07:22:55*
%MOMM*%
%LPD*%
G04 APERTURE LIST*
%ADD10C,0.150000*%
%ADD11C,1.250000*%
%ADD12R,1.550000X1.300000*%
%ADD13R,0.850000X0.912500*%
G04 APERTURE END LIST*
D10*
G36*
X35959504Y-57546204D02*
G01*
X35983773Y-57549804D01*
X36007571Y-57555765D01*
X36030671Y-57564030D01*
X36052849Y-57574520D01*
X36073893Y-57587133D01*
X36093598Y-57601747D01*
X36111777Y-57618223D01*
X36128253Y-57636402D01*
X36142867Y-57656107D01*
X36155480Y-57677151D01*
X36165970Y-57699329D01*
X36174235Y-57722429D01*
X36180196Y-57746227D01*
X36183796Y-57770496D01*
X36185000Y-57795000D01*
X36185000Y-59045000D01*
X36183796Y-59069504D01*
X36180196Y-59093773D01*
X36174235Y-59117571D01*
X36165970Y-59140671D01*
X36155480Y-59162849D01*
X36142867Y-59183893D01*
X36128253Y-59203598D01*
X36111777Y-59221777D01*
X36093598Y-59238253D01*
X36073893Y-59252867D01*
X36052849Y-59265480D01*
X36030671Y-59275970D01*
X36007571Y-59284235D01*
X35983773Y-59290196D01*
X35959504Y-59293796D01*
X35935000Y-59295000D01*
X35185000Y-59295000D01*
X35160496Y-59293796D01*
X35136227Y-59290196D01*
X35112429Y-59284235D01*
X35089329Y-59275970D01*
X35067151Y-59265480D01*
X35046107Y-59252867D01*
X35026402Y-59238253D01*
X35008223Y-59221777D01*
X34991747Y-59203598D01*
X34977133Y-59183893D01*
X34964520Y-59162849D01*
X34954030Y-59140671D01*
X34945765Y-59117571D01*
X34939804Y-59093773D01*
X34936204Y-59069504D01*
X34935000Y-59045000D01*
X34935000Y-57795000D01*
X34936204Y-57770496D01*
X34939804Y-57746227D01*
X34945765Y-57722429D01*
X34954030Y-57699329D01*
X34964520Y-57677151D01*
X34977133Y-57656107D01*
X34991747Y-57636402D01*
X35008223Y-57618223D01*
X35026402Y-57601747D01*
X35046107Y-57587133D01*
X35067151Y-57574520D01*
X35089329Y-57564030D01*
X35112429Y-57555765D01*
X35136227Y-57549804D01*
X35160496Y-57546204D01*
X35185000Y-57545000D01*
X35935000Y-57545000D01*
X35959504Y-57546204D01*
X35959504Y-57546204D01*
G37*
D11*
X35560000Y-58420000D03*
D10*
G36*
X38759504Y-57546204D02*
G01*
X38783773Y-57549804D01*
X38807571Y-57555765D01*
X38830671Y-57564030D01*
X38852849Y-57574520D01*
X38873893Y-57587133D01*
X38893598Y-57601747D01*
X38911777Y-57618223D01*
X38928253Y-57636402D01*
X38942867Y-57656107D01*
X38955480Y-57677151D01*
X38965970Y-57699329D01*
X38974235Y-57722429D01*
X38980196Y-57746227D01*
X38983796Y-57770496D01*
X38985000Y-57795000D01*
X38985000Y-59045000D01*
X38983796Y-59069504D01*
X38980196Y-59093773D01*
X38974235Y-59117571D01*
X38965970Y-59140671D01*
X38955480Y-59162849D01*
X38942867Y-59183893D01*
X38928253Y-59203598D01*
X38911777Y-59221777D01*
X38893598Y-59238253D01*
X38873893Y-59252867D01*
X38852849Y-59265480D01*
X38830671Y-59275970D01*
X38807571Y-59284235D01*
X38783773Y-59290196D01*
X38759504Y-59293796D01*
X38735000Y-59295000D01*
X37985000Y-59295000D01*
X37960496Y-59293796D01*
X37936227Y-59290196D01*
X37912429Y-59284235D01*
X37889329Y-59275970D01*
X37867151Y-59265480D01*
X37846107Y-59252867D01*
X37826402Y-59238253D01*
X37808223Y-59221777D01*
X37791747Y-59203598D01*
X37777133Y-59183893D01*
X37764520Y-59162849D01*
X37754030Y-59140671D01*
X37745765Y-59117571D01*
X37739804Y-59093773D01*
X37736204Y-59069504D01*
X37735000Y-59045000D01*
X37735000Y-57795000D01*
X37736204Y-57770496D01*
X37739804Y-57746227D01*
X37745765Y-57722429D01*
X37754030Y-57699329D01*
X37764520Y-57677151D01*
X37777133Y-57656107D01*
X37791747Y-57636402D01*
X37808223Y-57618223D01*
X37826402Y-57601747D01*
X37846107Y-57587133D01*
X37867151Y-57574520D01*
X37889329Y-57564030D01*
X37912429Y-57555765D01*
X37936227Y-57549804D01*
X37960496Y-57546204D01*
X37985000Y-57545000D01*
X38735000Y-57545000D01*
X38759504Y-57546204D01*
X38759504Y-57546204D01*
G37*
D11*
X38360000Y-58420000D03*
D10*
G36*
X43709504Y-57546204D02*
G01*
X43733773Y-57549804D01*
X43757571Y-57555765D01*
X43780671Y-57564030D01*
X43802849Y-57574520D01*
X43823893Y-57587133D01*
X43843598Y-57601747D01*
X43861777Y-57618223D01*
X43878253Y-57636402D01*
X43892867Y-57656107D01*
X43905480Y-57677151D01*
X43915970Y-57699329D01*
X43924235Y-57722429D01*
X43930196Y-57746227D01*
X43933796Y-57770496D01*
X43935000Y-57795000D01*
X43935000Y-59045000D01*
X43933796Y-59069504D01*
X43930196Y-59093773D01*
X43924235Y-59117571D01*
X43915970Y-59140671D01*
X43905480Y-59162849D01*
X43892867Y-59183893D01*
X43878253Y-59203598D01*
X43861777Y-59221777D01*
X43843598Y-59238253D01*
X43823893Y-59252867D01*
X43802849Y-59265480D01*
X43780671Y-59275970D01*
X43757571Y-59284235D01*
X43733773Y-59290196D01*
X43709504Y-59293796D01*
X43685000Y-59295000D01*
X42935000Y-59295000D01*
X42910496Y-59293796D01*
X42886227Y-59290196D01*
X42862429Y-59284235D01*
X42839329Y-59275970D01*
X42817151Y-59265480D01*
X42796107Y-59252867D01*
X42776402Y-59238253D01*
X42758223Y-59221777D01*
X42741747Y-59203598D01*
X42727133Y-59183893D01*
X42714520Y-59162849D01*
X42704030Y-59140671D01*
X42695765Y-59117571D01*
X42689804Y-59093773D01*
X42686204Y-59069504D01*
X42685000Y-59045000D01*
X42685000Y-57795000D01*
X42686204Y-57770496D01*
X42689804Y-57746227D01*
X42695765Y-57722429D01*
X42704030Y-57699329D01*
X42714520Y-57677151D01*
X42727133Y-57656107D01*
X42741747Y-57636402D01*
X42758223Y-57618223D01*
X42776402Y-57601747D01*
X42796107Y-57587133D01*
X42817151Y-57574520D01*
X42839329Y-57564030D01*
X42862429Y-57555765D01*
X42886227Y-57549804D01*
X42910496Y-57546204D01*
X42935000Y-57545000D01*
X43685000Y-57545000D01*
X43709504Y-57546204D01*
X43709504Y-57546204D01*
G37*
D11*
X43310000Y-58420000D03*
D10*
G36*
X40909504Y-57546204D02*
G01*
X40933773Y-57549804D01*
X40957571Y-57555765D01*
X40980671Y-57564030D01*
X41002849Y-57574520D01*
X41023893Y-57587133D01*
X41043598Y-57601747D01*
X41061777Y-57618223D01*
X41078253Y-57636402D01*
X41092867Y-57656107D01*
X41105480Y-57677151D01*
X41115970Y-57699329D01*
X41124235Y-57722429D01*
X41130196Y-57746227D01*
X41133796Y-57770496D01*
X41135000Y-57795000D01*
X41135000Y-59045000D01*
X41133796Y-59069504D01*
X41130196Y-59093773D01*
X41124235Y-59117571D01*
X41115970Y-59140671D01*
X41105480Y-59162849D01*
X41092867Y-59183893D01*
X41078253Y-59203598D01*
X41061777Y-59221777D01*
X41043598Y-59238253D01*
X41023893Y-59252867D01*
X41002849Y-59265480D01*
X40980671Y-59275970D01*
X40957571Y-59284235D01*
X40933773Y-59290196D01*
X40909504Y-59293796D01*
X40885000Y-59295000D01*
X40135000Y-59295000D01*
X40110496Y-59293796D01*
X40086227Y-59290196D01*
X40062429Y-59284235D01*
X40039329Y-59275970D01*
X40017151Y-59265480D01*
X39996107Y-59252867D01*
X39976402Y-59238253D01*
X39958223Y-59221777D01*
X39941747Y-59203598D01*
X39927133Y-59183893D01*
X39914520Y-59162849D01*
X39904030Y-59140671D01*
X39895765Y-59117571D01*
X39889804Y-59093773D01*
X39886204Y-59069504D01*
X39885000Y-59045000D01*
X39885000Y-57795000D01*
X39886204Y-57770496D01*
X39889804Y-57746227D01*
X39895765Y-57722429D01*
X39904030Y-57699329D01*
X39914520Y-57677151D01*
X39927133Y-57656107D01*
X39941747Y-57636402D01*
X39958223Y-57618223D01*
X39976402Y-57601747D01*
X39996107Y-57587133D01*
X40017151Y-57574520D01*
X40039329Y-57564030D01*
X40062429Y-57555765D01*
X40086227Y-57549804D01*
X40110496Y-57546204D01*
X40135000Y-57545000D01*
X40885000Y-57545000D01*
X40909504Y-57546204D01*
X40909504Y-57546204D01*
G37*
D11*
X40510000Y-58420000D03*
D12*
X43942000Y-63790000D03*
X43942000Y-68290000D03*
X34798000Y-68290000D03*
X34798000Y-63790000D03*
D13*
X72237500Y-51150000D03*
X72237500Y-52650000D03*
X72237500Y-54150000D03*
X72237500Y-55650000D03*
X72237500Y-57150000D03*
X72237500Y-58650000D03*
X72237500Y-60150000D03*
X72237500Y-61650000D03*
X72237500Y-63150000D03*
X54762500Y-63150000D03*
X54762500Y-61650000D03*
X54762500Y-60150000D03*
X54762500Y-58650000D03*
X54762500Y-57150000D03*
X54762500Y-55650000D03*
X54762500Y-54150000D03*
X54762500Y-52650000D03*
X54762500Y-51150000D03*
M02*
