G04 #@! TF.GenerationSoftware,KiCad,Pcbnew,(5.1.2)-1*
G04 #@! TF.CreationDate,2021-12-05T07:22:55+09:00*
G04 #@! TF.ProjectId,ESP32C3_downloader,45535033-3243-4335-9f64-6f776e6c6f61,rev?*
G04 #@! TF.SameCoordinates,Original*
G04 #@! TF.FileFunction,Copper,L1,Top*
G04 #@! TF.FilePolarity,Positive*
%FSLAX46Y46*%
G04 Gerber Fmt 4.6, Leading zero omitted, Abs format (unit mm)*
G04 Created by KiCad (PCBNEW (5.1.2)-1) date 2021-12-05 07:22:55*
%MOMM*%
%LPD*%
G04 APERTURE LIST*
%ADD10C,0.150000*%
%ADD11C,1.200000*%
%ADD12O,1.750000X1.200000*%
%ADD13C,1.250000*%
%ADD14R,1.350000X1.350000*%
%ADD15O,1.350000X1.350000*%
%ADD16O,1.200000X1.750000*%
%ADD17R,1.700000X1.700000*%
%ADD18O,1.700000X1.700000*%
%ADD19R,1.550000X1.300000*%
%ADD20R,0.850000X0.912500*%
%ADD21C,0.250000*%
%ADD22C,0.254000*%
G04 APERTURE END LIST*
D10*
G36*
X48909505Y-57821204D02*
G01*
X48933773Y-57824804D01*
X48957572Y-57830765D01*
X48980671Y-57839030D01*
X49002850Y-57849520D01*
X49023893Y-57862132D01*
X49043599Y-57876747D01*
X49061777Y-57893223D01*
X49078253Y-57911401D01*
X49092868Y-57931107D01*
X49105480Y-57952150D01*
X49115970Y-57974329D01*
X49124235Y-57997428D01*
X49130196Y-58021227D01*
X49133796Y-58045495D01*
X49135000Y-58069999D01*
X49135000Y-58770001D01*
X49133796Y-58794505D01*
X49130196Y-58818773D01*
X49124235Y-58842572D01*
X49115970Y-58865671D01*
X49105480Y-58887850D01*
X49092868Y-58908893D01*
X49078253Y-58928599D01*
X49061777Y-58946777D01*
X49043599Y-58963253D01*
X49023893Y-58977868D01*
X49002850Y-58990480D01*
X48980671Y-59000970D01*
X48957572Y-59009235D01*
X48933773Y-59015196D01*
X48909505Y-59018796D01*
X48885001Y-59020000D01*
X47634999Y-59020000D01*
X47610495Y-59018796D01*
X47586227Y-59015196D01*
X47562428Y-59009235D01*
X47539329Y-59000970D01*
X47517150Y-58990480D01*
X47496107Y-58977868D01*
X47476401Y-58963253D01*
X47458223Y-58946777D01*
X47441747Y-58928599D01*
X47427132Y-58908893D01*
X47414520Y-58887850D01*
X47404030Y-58865671D01*
X47395765Y-58842572D01*
X47389804Y-58818773D01*
X47386204Y-58794505D01*
X47385000Y-58770001D01*
X47385000Y-58069999D01*
X47386204Y-58045495D01*
X47389804Y-58021227D01*
X47395765Y-57997428D01*
X47404030Y-57974329D01*
X47414520Y-57952150D01*
X47427132Y-57931107D01*
X47441747Y-57911401D01*
X47458223Y-57893223D01*
X47476401Y-57876747D01*
X47496107Y-57862132D01*
X47517150Y-57849520D01*
X47539329Y-57839030D01*
X47562428Y-57830765D01*
X47586227Y-57824804D01*
X47610495Y-57821204D01*
X47634999Y-57820000D01*
X48885001Y-57820000D01*
X48909505Y-57821204D01*
X48909505Y-57821204D01*
G37*
D11*
X48260000Y-58420000D03*
D12*
X48260000Y-60420000D03*
X48260000Y-62420000D03*
X48260000Y-64420000D03*
X48260000Y-66420000D03*
D10*
G36*
X35959504Y-57546204D02*
G01*
X35983773Y-57549804D01*
X36007571Y-57555765D01*
X36030671Y-57564030D01*
X36052849Y-57574520D01*
X36073893Y-57587133D01*
X36093598Y-57601747D01*
X36111777Y-57618223D01*
X36128253Y-57636402D01*
X36142867Y-57656107D01*
X36155480Y-57677151D01*
X36165970Y-57699329D01*
X36174235Y-57722429D01*
X36180196Y-57746227D01*
X36183796Y-57770496D01*
X36185000Y-57795000D01*
X36185000Y-59045000D01*
X36183796Y-59069504D01*
X36180196Y-59093773D01*
X36174235Y-59117571D01*
X36165970Y-59140671D01*
X36155480Y-59162849D01*
X36142867Y-59183893D01*
X36128253Y-59203598D01*
X36111777Y-59221777D01*
X36093598Y-59238253D01*
X36073893Y-59252867D01*
X36052849Y-59265480D01*
X36030671Y-59275970D01*
X36007571Y-59284235D01*
X35983773Y-59290196D01*
X35959504Y-59293796D01*
X35935000Y-59295000D01*
X35185000Y-59295000D01*
X35160496Y-59293796D01*
X35136227Y-59290196D01*
X35112429Y-59284235D01*
X35089329Y-59275970D01*
X35067151Y-59265480D01*
X35046107Y-59252867D01*
X35026402Y-59238253D01*
X35008223Y-59221777D01*
X34991747Y-59203598D01*
X34977133Y-59183893D01*
X34964520Y-59162849D01*
X34954030Y-59140671D01*
X34945765Y-59117571D01*
X34939804Y-59093773D01*
X34936204Y-59069504D01*
X34935000Y-59045000D01*
X34935000Y-57795000D01*
X34936204Y-57770496D01*
X34939804Y-57746227D01*
X34945765Y-57722429D01*
X34954030Y-57699329D01*
X34964520Y-57677151D01*
X34977133Y-57656107D01*
X34991747Y-57636402D01*
X35008223Y-57618223D01*
X35026402Y-57601747D01*
X35046107Y-57587133D01*
X35067151Y-57574520D01*
X35089329Y-57564030D01*
X35112429Y-57555765D01*
X35136227Y-57549804D01*
X35160496Y-57546204D01*
X35185000Y-57545000D01*
X35935000Y-57545000D01*
X35959504Y-57546204D01*
X35959504Y-57546204D01*
G37*
D13*
X35560000Y-58420000D03*
D10*
G36*
X38759504Y-57546204D02*
G01*
X38783773Y-57549804D01*
X38807571Y-57555765D01*
X38830671Y-57564030D01*
X38852849Y-57574520D01*
X38873893Y-57587133D01*
X38893598Y-57601747D01*
X38911777Y-57618223D01*
X38928253Y-57636402D01*
X38942867Y-57656107D01*
X38955480Y-57677151D01*
X38965970Y-57699329D01*
X38974235Y-57722429D01*
X38980196Y-57746227D01*
X38983796Y-57770496D01*
X38985000Y-57795000D01*
X38985000Y-59045000D01*
X38983796Y-59069504D01*
X38980196Y-59093773D01*
X38974235Y-59117571D01*
X38965970Y-59140671D01*
X38955480Y-59162849D01*
X38942867Y-59183893D01*
X38928253Y-59203598D01*
X38911777Y-59221777D01*
X38893598Y-59238253D01*
X38873893Y-59252867D01*
X38852849Y-59265480D01*
X38830671Y-59275970D01*
X38807571Y-59284235D01*
X38783773Y-59290196D01*
X38759504Y-59293796D01*
X38735000Y-59295000D01*
X37985000Y-59295000D01*
X37960496Y-59293796D01*
X37936227Y-59290196D01*
X37912429Y-59284235D01*
X37889329Y-59275970D01*
X37867151Y-59265480D01*
X37846107Y-59252867D01*
X37826402Y-59238253D01*
X37808223Y-59221777D01*
X37791747Y-59203598D01*
X37777133Y-59183893D01*
X37764520Y-59162849D01*
X37754030Y-59140671D01*
X37745765Y-59117571D01*
X37739804Y-59093773D01*
X37736204Y-59069504D01*
X37735000Y-59045000D01*
X37735000Y-57795000D01*
X37736204Y-57770496D01*
X37739804Y-57746227D01*
X37745765Y-57722429D01*
X37754030Y-57699329D01*
X37764520Y-57677151D01*
X37777133Y-57656107D01*
X37791747Y-57636402D01*
X37808223Y-57618223D01*
X37826402Y-57601747D01*
X37846107Y-57587133D01*
X37867151Y-57574520D01*
X37889329Y-57564030D01*
X37912429Y-57555765D01*
X37936227Y-57549804D01*
X37960496Y-57546204D01*
X37985000Y-57545000D01*
X38735000Y-57545000D01*
X38759504Y-57546204D01*
X38759504Y-57546204D01*
G37*
D13*
X38360000Y-58420000D03*
D10*
G36*
X43709504Y-57546204D02*
G01*
X43733773Y-57549804D01*
X43757571Y-57555765D01*
X43780671Y-57564030D01*
X43802849Y-57574520D01*
X43823893Y-57587133D01*
X43843598Y-57601747D01*
X43861777Y-57618223D01*
X43878253Y-57636402D01*
X43892867Y-57656107D01*
X43905480Y-57677151D01*
X43915970Y-57699329D01*
X43924235Y-57722429D01*
X43930196Y-57746227D01*
X43933796Y-57770496D01*
X43935000Y-57795000D01*
X43935000Y-59045000D01*
X43933796Y-59069504D01*
X43930196Y-59093773D01*
X43924235Y-59117571D01*
X43915970Y-59140671D01*
X43905480Y-59162849D01*
X43892867Y-59183893D01*
X43878253Y-59203598D01*
X43861777Y-59221777D01*
X43843598Y-59238253D01*
X43823893Y-59252867D01*
X43802849Y-59265480D01*
X43780671Y-59275970D01*
X43757571Y-59284235D01*
X43733773Y-59290196D01*
X43709504Y-59293796D01*
X43685000Y-59295000D01*
X42935000Y-59295000D01*
X42910496Y-59293796D01*
X42886227Y-59290196D01*
X42862429Y-59284235D01*
X42839329Y-59275970D01*
X42817151Y-59265480D01*
X42796107Y-59252867D01*
X42776402Y-59238253D01*
X42758223Y-59221777D01*
X42741747Y-59203598D01*
X42727133Y-59183893D01*
X42714520Y-59162849D01*
X42704030Y-59140671D01*
X42695765Y-59117571D01*
X42689804Y-59093773D01*
X42686204Y-59069504D01*
X42685000Y-59045000D01*
X42685000Y-57795000D01*
X42686204Y-57770496D01*
X42689804Y-57746227D01*
X42695765Y-57722429D01*
X42704030Y-57699329D01*
X42714520Y-57677151D01*
X42727133Y-57656107D01*
X42741747Y-57636402D01*
X42758223Y-57618223D01*
X42776402Y-57601747D01*
X42796107Y-57587133D01*
X42817151Y-57574520D01*
X42839329Y-57564030D01*
X42862429Y-57555765D01*
X42886227Y-57549804D01*
X42910496Y-57546204D01*
X42935000Y-57545000D01*
X43685000Y-57545000D01*
X43709504Y-57546204D01*
X43709504Y-57546204D01*
G37*
D13*
X43310000Y-58420000D03*
D10*
G36*
X40909504Y-57546204D02*
G01*
X40933773Y-57549804D01*
X40957571Y-57555765D01*
X40980671Y-57564030D01*
X41002849Y-57574520D01*
X41023893Y-57587133D01*
X41043598Y-57601747D01*
X41061777Y-57618223D01*
X41078253Y-57636402D01*
X41092867Y-57656107D01*
X41105480Y-57677151D01*
X41115970Y-57699329D01*
X41124235Y-57722429D01*
X41130196Y-57746227D01*
X41133796Y-57770496D01*
X41135000Y-57795000D01*
X41135000Y-59045000D01*
X41133796Y-59069504D01*
X41130196Y-59093773D01*
X41124235Y-59117571D01*
X41115970Y-59140671D01*
X41105480Y-59162849D01*
X41092867Y-59183893D01*
X41078253Y-59203598D01*
X41061777Y-59221777D01*
X41043598Y-59238253D01*
X41023893Y-59252867D01*
X41002849Y-59265480D01*
X40980671Y-59275970D01*
X40957571Y-59284235D01*
X40933773Y-59290196D01*
X40909504Y-59293796D01*
X40885000Y-59295000D01*
X40135000Y-59295000D01*
X40110496Y-59293796D01*
X40086227Y-59290196D01*
X40062429Y-59284235D01*
X40039329Y-59275970D01*
X40017151Y-59265480D01*
X39996107Y-59252867D01*
X39976402Y-59238253D01*
X39958223Y-59221777D01*
X39941747Y-59203598D01*
X39927133Y-59183893D01*
X39914520Y-59162849D01*
X39904030Y-59140671D01*
X39895765Y-59117571D01*
X39889804Y-59093773D01*
X39886204Y-59069504D01*
X39885000Y-59045000D01*
X39885000Y-57795000D01*
X39886204Y-57770496D01*
X39889804Y-57746227D01*
X39895765Y-57722429D01*
X39904030Y-57699329D01*
X39914520Y-57677151D01*
X39927133Y-57656107D01*
X39941747Y-57636402D01*
X39958223Y-57618223D01*
X39976402Y-57601747D01*
X39996107Y-57587133D01*
X40017151Y-57574520D01*
X40039329Y-57564030D01*
X40062429Y-57555765D01*
X40086227Y-57549804D01*
X40110496Y-57546204D01*
X40135000Y-57545000D01*
X40885000Y-57545000D01*
X40909504Y-57546204D01*
X40909504Y-57546204D01*
G37*
D13*
X40510000Y-58420000D03*
D14*
X52070000Y-52070000D03*
D15*
X52070000Y-54070000D03*
X52070000Y-56070000D03*
X52070000Y-58070000D03*
X52070000Y-60070000D03*
X52070000Y-62070000D03*
X52070000Y-64070000D03*
X52070000Y-66070000D03*
X52070000Y-68070000D03*
X74930000Y-68070000D03*
X74930000Y-66070000D03*
X74930000Y-64070000D03*
X74930000Y-62070000D03*
X74930000Y-60070000D03*
X74930000Y-58070000D03*
X74930000Y-56070000D03*
X74930000Y-54070000D03*
D14*
X74930000Y-52070000D03*
D16*
X67690000Y-66675000D03*
X65690000Y-66675000D03*
X63690000Y-66675000D03*
X61690000Y-66675000D03*
D10*
G36*
X60064505Y-65801204D02*
G01*
X60088773Y-65804804D01*
X60112572Y-65810765D01*
X60135671Y-65819030D01*
X60157850Y-65829520D01*
X60178893Y-65842132D01*
X60198599Y-65856747D01*
X60216777Y-65873223D01*
X60233253Y-65891401D01*
X60247868Y-65911107D01*
X60260480Y-65932150D01*
X60270970Y-65954329D01*
X60279235Y-65977428D01*
X60285196Y-66001227D01*
X60288796Y-66025495D01*
X60290000Y-66049999D01*
X60290000Y-67300001D01*
X60288796Y-67324505D01*
X60285196Y-67348773D01*
X60279235Y-67372572D01*
X60270970Y-67395671D01*
X60260480Y-67417850D01*
X60247868Y-67438893D01*
X60233253Y-67458599D01*
X60216777Y-67476777D01*
X60198599Y-67493253D01*
X60178893Y-67507868D01*
X60157850Y-67520480D01*
X60135671Y-67530970D01*
X60112572Y-67539235D01*
X60088773Y-67545196D01*
X60064505Y-67548796D01*
X60040001Y-67550000D01*
X59339999Y-67550000D01*
X59315495Y-67548796D01*
X59291227Y-67545196D01*
X59267428Y-67539235D01*
X59244329Y-67530970D01*
X59222150Y-67520480D01*
X59201107Y-67507868D01*
X59181401Y-67493253D01*
X59163223Y-67476777D01*
X59146747Y-67458599D01*
X59132132Y-67438893D01*
X59119520Y-67417850D01*
X59109030Y-67395671D01*
X59100765Y-67372572D01*
X59094804Y-67348773D01*
X59091204Y-67324505D01*
X59090000Y-67300001D01*
X59090000Y-66049999D01*
X59091204Y-66025495D01*
X59094804Y-66001227D01*
X59100765Y-65977428D01*
X59109030Y-65954329D01*
X59119520Y-65932150D01*
X59132132Y-65911107D01*
X59146747Y-65891401D01*
X59163223Y-65873223D01*
X59181401Y-65856747D01*
X59201107Y-65842132D01*
X59222150Y-65829520D01*
X59244329Y-65819030D01*
X59267428Y-65810765D01*
X59291227Y-65804804D01*
X59315495Y-65801204D01*
X59339999Y-65800000D01*
X60040001Y-65800000D01*
X60064505Y-65801204D01*
X60064505Y-65801204D01*
G37*
D11*
X59690000Y-66675000D03*
D17*
X31750000Y-55880000D03*
D18*
X31750000Y-58420000D03*
X31750000Y-60960000D03*
X31750000Y-63500000D03*
X31750000Y-66040000D03*
X31750000Y-68580000D03*
D19*
X43942000Y-63790000D03*
X43942000Y-68290000D03*
X34798000Y-68290000D03*
X34798000Y-63790000D03*
D17*
X35560000Y-60960000D03*
D18*
X40640000Y-60960000D03*
D20*
X72237500Y-51150000D03*
X72237500Y-52650000D03*
X72237500Y-54150000D03*
X72237500Y-55650000D03*
X72237500Y-57150000D03*
X72237500Y-58650000D03*
X72237500Y-60150000D03*
X72237500Y-61650000D03*
X72237500Y-63150000D03*
X54762500Y-63150000D03*
X54762500Y-61650000D03*
X54762500Y-60150000D03*
X54762500Y-58650000D03*
X54762500Y-57150000D03*
X54762500Y-55650000D03*
X54762500Y-54150000D03*
X54762500Y-52650000D03*
X54762500Y-51150000D03*
D21*
X35560000Y-56515000D02*
X35560000Y-58420000D01*
X31750000Y-55880000D02*
X34925000Y-55880000D01*
X34925000Y-55880000D02*
X35560000Y-56515000D01*
X35560000Y-60960000D02*
X35560000Y-58420000D01*
X38360000Y-56775000D02*
X38360000Y-58420000D01*
X43854600Y-56515000D02*
X38620000Y-56515000D01*
X38360000Y-56775000D02*
X38620000Y-56515000D01*
X45759600Y-58420000D02*
X45719999Y-58380399D01*
X48260000Y-58420000D02*
X46355000Y-58420000D01*
X45759600Y-58420000D02*
X46355000Y-58420000D01*
X45759600Y-58420000D02*
X48260000Y-58420000D01*
X45104800Y-57765200D02*
X45759600Y-58420000D01*
X45104800Y-57765200D02*
X43854600Y-56515000D01*
X45719999Y-58380399D02*
X45104800Y-57765200D01*
X44489600Y-57150000D02*
X43854600Y-56515000D01*
X43310000Y-58420000D02*
X43310000Y-59865000D01*
X45865000Y-62420000D02*
X48260000Y-62420000D01*
X45697500Y-62252500D02*
X45865000Y-62420000D01*
X43310000Y-59865000D02*
X45697500Y-62252500D01*
X40510000Y-59395000D02*
X40510000Y-58420000D01*
X39962500Y-59942500D02*
X40510000Y-59395000D01*
X39622500Y-59942500D02*
X39962500Y-59942500D01*
X36750001Y-62814999D02*
X39622500Y-59942500D01*
X33604999Y-62814999D02*
X36750001Y-62814999D01*
X31750000Y-60960000D02*
X33604999Y-62814999D01*
X54762500Y-51181250D02*
X54762500Y-51150000D01*
X53873750Y-52070000D02*
X54762500Y-51181250D01*
X52070000Y-52070000D02*
X53873750Y-52070000D01*
X54762500Y-52681250D02*
X54762500Y-52650000D01*
X53373750Y-54070000D02*
X54762500Y-52681250D01*
X52070000Y-54070000D02*
X53373750Y-54070000D01*
X55437500Y-52650000D02*
X54762500Y-52650000D01*
X53990000Y-54150000D02*
X54762500Y-54150000D01*
X52070000Y-56070000D02*
X53990000Y-54150000D01*
X54490000Y-55650000D02*
X54762500Y-55650000D01*
X52070000Y-58070000D02*
X54490000Y-55650000D01*
X54762500Y-57181250D02*
X54762500Y-57150000D01*
X52744999Y-59198751D02*
X54762500Y-57181250D01*
X52744999Y-59395001D02*
X52744999Y-59198751D01*
X52070000Y-60070000D02*
X52744999Y-59395001D01*
X54762500Y-58681250D02*
X54762500Y-58650000D01*
X54012499Y-59431251D02*
X54762500Y-58681250D01*
X54012499Y-60127501D02*
X54012499Y-59431251D01*
X52070000Y-62070000D02*
X54012499Y-60127501D01*
X54762500Y-60181250D02*
X54762500Y-60150000D01*
X53070001Y-61873749D02*
X54762500Y-60181250D01*
X53070001Y-63069999D02*
X53070001Y-61873749D01*
X52070000Y-64070000D02*
X53070001Y-63069999D01*
X54762500Y-61681250D02*
X54762500Y-61650000D01*
X54012499Y-62431251D02*
X54762500Y-61681250D01*
X54012499Y-64127501D02*
X54012499Y-62431251D01*
X52070000Y-66070000D02*
X54012499Y-64127501D01*
X59690000Y-66675000D02*
X59690000Y-65700000D01*
X55640000Y-61650000D02*
X54762500Y-61650000D01*
X59690000Y-65700000D02*
X55640000Y-61650000D01*
X54762500Y-65377500D02*
X54762500Y-63150000D01*
X52070000Y-68070000D02*
X54762500Y-65377500D01*
X67690000Y-66400000D02*
X67690000Y-66675000D01*
X72237500Y-65377500D02*
X74930000Y-68070000D01*
X72237500Y-63150000D02*
X72237500Y-65377500D01*
X65690000Y-65120000D02*
X65340000Y-64770000D01*
X65690000Y-66675000D02*
X65690000Y-65120000D01*
X65340000Y-64770000D02*
X60325000Y-64770000D01*
X56003750Y-60448750D02*
X56003750Y-53216250D01*
X60325000Y-64770000D02*
X56003750Y-60448750D01*
X56003750Y-53216250D02*
X55437500Y-52650000D01*
X72237500Y-60181250D02*
X72237500Y-60150000D01*
X72987501Y-60931251D02*
X72237500Y-60181250D01*
X74255001Y-63395001D02*
X74255001Y-63062341D01*
X74930000Y-64070000D02*
X74255001Y-63395001D01*
X72237500Y-58681250D02*
X72237500Y-58650000D01*
X72987501Y-59431251D02*
X72237500Y-58681250D01*
X72987501Y-60127501D02*
X72987501Y-59431251D01*
X74930000Y-62070000D02*
X72987501Y-60127501D01*
X72237500Y-57181250D02*
X72237500Y-57150000D01*
X74255001Y-59198751D02*
X72237500Y-57181250D01*
X74255001Y-59395001D02*
X74255001Y-59198751D01*
X74930000Y-60070000D02*
X74255001Y-59395001D01*
X72510000Y-55650000D02*
X72237500Y-55650000D01*
X74930000Y-58070000D02*
X72510000Y-55650000D01*
X73010000Y-54150000D02*
X72237500Y-54150000D01*
X74930000Y-56070000D02*
X73010000Y-54150000D01*
X72237500Y-52681250D02*
X72237500Y-52650000D01*
X73626250Y-54070000D02*
X72237500Y-52681250D01*
X74930000Y-54070000D02*
X73626250Y-54070000D01*
X72237500Y-51181250D02*
X72237500Y-51150000D01*
X73126250Y-52070000D02*
X72237500Y-51181250D01*
X74930000Y-52070000D02*
X73126250Y-52070000D01*
X69399991Y-68395009D02*
X70485000Y-67310000D01*
X64285009Y-68395009D02*
X69399991Y-68395009D01*
X63690000Y-67800000D02*
X64285009Y-68395009D01*
X63690000Y-66675000D02*
X63690000Y-67800000D01*
X71065000Y-61650000D02*
X72237500Y-61650000D01*
X70485000Y-62230000D02*
X71065000Y-61650000D01*
X70485000Y-64135000D02*
X70485000Y-62230000D01*
X70485000Y-64135000D02*
X70485000Y-63433750D01*
X70485000Y-67310000D02*
X70485000Y-64135000D01*
X72912500Y-61650000D02*
X72237500Y-61650000D01*
X72987501Y-61725001D02*
X72912500Y-61650000D01*
X72987501Y-64127501D02*
X72987501Y-61725001D01*
X74930000Y-66070000D02*
X72987501Y-64127501D01*
X61690000Y-66400000D02*
X61690000Y-66675000D01*
X64069081Y-65470919D02*
X62619081Y-65470919D01*
X64764990Y-66166829D02*
X64069081Y-65470919D01*
X64764990Y-67333151D02*
X64764990Y-66166829D01*
X62619081Y-65470919D02*
X61690000Y-66400000D01*
X69850000Y-67308590D02*
X69213590Y-67945000D01*
X69213590Y-67945000D02*
X65376839Y-67945000D01*
X65376839Y-67945000D02*
X64764990Y-67333151D01*
X69850000Y-61595000D02*
X71295000Y-60150000D01*
X72237500Y-60150000D02*
X71295000Y-60150000D01*
X69850000Y-61595000D02*
X69850000Y-67308590D01*
X72987501Y-60931251D02*
X72996251Y-60931251D01*
X73541330Y-61476330D02*
X73541330Y-62348670D01*
X72996251Y-60931251D02*
X73541330Y-61476330D01*
X74255001Y-63062341D02*
X73541330Y-62348670D01*
X43923180Y-57219990D02*
X45269990Y-58566800D01*
X39896820Y-57219990D02*
X43923180Y-57219990D01*
X36698590Y-62230000D02*
X39559990Y-59368600D01*
X34544998Y-62230000D02*
X36698590Y-62230000D01*
X34384999Y-62070001D02*
X34544998Y-62230000D01*
X45269990Y-58566800D02*
X45269990Y-59824990D01*
X39559990Y-59368600D02*
X39559990Y-57556820D01*
X34384999Y-61054999D02*
X34384999Y-62070001D01*
X39559990Y-57556820D02*
X39896820Y-57219990D01*
X31750000Y-58420000D02*
X34384999Y-61054999D01*
X45865000Y-60420000D02*
X45269990Y-59824990D01*
X48260000Y-60420000D02*
X45865000Y-60420000D01*
X34798000Y-68290000D02*
X43942000Y-68290000D01*
X34798000Y-67183000D02*
X34798000Y-68290000D01*
X34290000Y-66675000D02*
X34798000Y-67183000D01*
X33655000Y-66675000D02*
X34290000Y-66675000D01*
X31750000Y-66040000D02*
X33020000Y-66040000D01*
X33020000Y-66040000D02*
X33655000Y-66675000D01*
X45375000Y-68290000D02*
X45975000Y-67690000D01*
X43942000Y-68290000D02*
X45375000Y-68290000D01*
X34798000Y-63790000D02*
X40350000Y-63790000D01*
X40640000Y-63500000D02*
X40640000Y-60960000D01*
X40350000Y-63790000D02*
X40640000Y-63500000D01*
X40930000Y-63790000D02*
X40640000Y-63500000D01*
X43942000Y-63790000D02*
X40930000Y-63790000D01*
X47355000Y-63790000D02*
X43942000Y-63790000D01*
X48260000Y-64420000D02*
X47985000Y-64420000D01*
X47985000Y-64420000D02*
X47355000Y-63790000D01*
X45975000Y-67580000D02*
X45975000Y-67690000D01*
X47135000Y-66420000D02*
X45975000Y-67580000D01*
X48260000Y-66420000D02*
X47135000Y-66420000D01*
D22*
G36*
X51139208Y-55000792D02*
G01*
X51223539Y-55070000D01*
X51139208Y-55139208D01*
X50975505Y-55338682D01*
X50853862Y-55566259D01*
X50778955Y-55813195D01*
X50753662Y-56070000D01*
X50778955Y-56326805D01*
X50853862Y-56573741D01*
X50975505Y-56801318D01*
X51139208Y-57000792D01*
X51223539Y-57070000D01*
X51139208Y-57139208D01*
X50975505Y-57338682D01*
X50853862Y-57566259D01*
X50778955Y-57813195D01*
X50753662Y-58070000D01*
X50778955Y-58326805D01*
X50853862Y-58573741D01*
X50975505Y-58801318D01*
X51139208Y-59000792D01*
X51223539Y-59070000D01*
X51139208Y-59139208D01*
X50975505Y-59338682D01*
X50853862Y-59566259D01*
X50778955Y-59813195D01*
X50753662Y-60070000D01*
X50778955Y-60326805D01*
X50853862Y-60573741D01*
X50975505Y-60801318D01*
X51139208Y-61000792D01*
X51223539Y-61070000D01*
X51139208Y-61139208D01*
X50975505Y-61338682D01*
X50853862Y-61566259D01*
X50778955Y-61813195D01*
X50753662Y-62070000D01*
X50778955Y-62326805D01*
X50853862Y-62573741D01*
X50975505Y-62801318D01*
X51139208Y-63000792D01*
X51223539Y-63070000D01*
X51139208Y-63139208D01*
X50975505Y-63338682D01*
X50853862Y-63566259D01*
X50778955Y-63813195D01*
X50753662Y-64070000D01*
X50778955Y-64326805D01*
X50853862Y-64573741D01*
X50975505Y-64801318D01*
X51139208Y-65000792D01*
X51223539Y-65070000D01*
X51139208Y-65139208D01*
X50975505Y-65338682D01*
X50853862Y-65566259D01*
X50778955Y-65813195D01*
X50753662Y-66070000D01*
X50778955Y-66326805D01*
X50853862Y-66573741D01*
X50975505Y-66801318D01*
X51139208Y-67000792D01*
X51227648Y-67073372D01*
X51091697Y-67198773D01*
X50940527Y-67406371D01*
X50832762Y-67639472D01*
X50802090Y-67740600D01*
X50925776Y-67943000D01*
X51943000Y-67943000D01*
X51943000Y-67923000D01*
X52197000Y-67923000D01*
X52197000Y-67943000D01*
X53214224Y-67943000D01*
X53337910Y-67740600D01*
X53307238Y-67639472D01*
X53199473Y-67406371D01*
X53048303Y-67198773D01*
X52912352Y-67073372D01*
X53000792Y-67000792D01*
X53164495Y-66801318D01*
X53286138Y-66573741D01*
X53361045Y-66326805D01*
X53386338Y-66070000D01*
X53364682Y-65850120D01*
X54523508Y-64691295D01*
X54552500Y-64667502D01*
X54576294Y-64638509D01*
X54576298Y-64638505D01*
X54641319Y-64559276D01*
X54647473Y-64551777D01*
X54718045Y-64419748D01*
X54761502Y-64276487D01*
X54764973Y-64241250D01*
X54889502Y-64241250D01*
X54889502Y-64082502D01*
X55048250Y-64241250D01*
X55187500Y-64244322D01*
X55311982Y-64232062D01*
X55431680Y-64195752D01*
X55541994Y-64136787D01*
X55638685Y-64057435D01*
X55718037Y-63960744D01*
X55777002Y-63850430D01*
X55813312Y-63730732D01*
X55825572Y-63606250D01*
X55822500Y-63435750D01*
X55663750Y-63277000D01*
X54889500Y-63277000D01*
X54889500Y-63297000D01*
X54772499Y-63297000D01*
X54772499Y-63003000D01*
X54889500Y-63003000D01*
X54889500Y-63023000D01*
X55663750Y-63023000D01*
X55800974Y-62885776D01*
X58556388Y-65641190D01*
X58519528Y-65710149D01*
X58468992Y-65876745D01*
X58451928Y-66049999D01*
X58451928Y-67300001D01*
X58468992Y-67473255D01*
X58519528Y-67639851D01*
X58601595Y-67793387D01*
X58712038Y-67927962D01*
X58846613Y-68038405D01*
X59000149Y-68120472D01*
X59166745Y-68171008D01*
X59339999Y-68188072D01*
X60040001Y-68188072D01*
X60213255Y-68171008D01*
X60379851Y-68120472D01*
X60533387Y-68038405D01*
X60667962Y-67927962D01*
X60778405Y-67793387D01*
X60780810Y-67788888D01*
X60812499Y-67827502D01*
X61000552Y-67981833D01*
X61215100Y-68096511D01*
X61447899Y-68167130D01*
X61690000Y-68190975D01*
X61932102Y-68167130D01*
X62164901Y-68096511D01*
X62379449Y-67981833D01*
X62567502Y-67827502D01*
X62690000Y-67678237D01*
X62812499Y-67827502D01*
X62939281Y-67931549D01*
X62940606Y-67945000D01*
X62940998Y-67948985D01*
X62984454Y-68092246D01*
X63055026Y-68224276D01*
X63108053Y-68288889D01*
X63150000Y-68340001D01*
X63178998Y-68363799D01*
X63721209Y-68906011D01*
X63745008Y-68935010D01*
X63860733Y-69029983D01*
X63992762Y-69100555D01*
X64136023Y-69144012D01*
X64247676Y-69155009D01*
X64247684Y-69155009D01*
X64285009Y-69158685D01*
X64322334Y-69155009D01*
X69362669Y-69155009D01*
X69399991Y-69158685D01*
X69437313Y-69155009D01*
X69437324Y-69155009D01*
X69548977Y-69144012D01*
X69692238Y-69100555D01*
X69824267Y-69029983D01*
X69939992Y-68935010D01*
X69963794Y-68906007D01*
X70996009Y-67873794D01*
X71025001Y-67850001D01*
X71048795Y-67821008D01*
X71048799Y-67821004D01*
X71119973Y-67734277D01*
X71119974Y-67734276D01*
X71190546Y-67602247D01*
X71234003Y-67458986D01*
X71245000Y-67347333D01*
X71245000Y-67347324D01*
X71248676Y-67310001D01*
X71245000Y-67272678D01*
X71245000Y-63891592D01*
X71281963Y-63960744D01*
X71361315Y-64057435D01*
X71458006Y-64136787D01*
X71477500Y-64147207D01*
X71477501Y-65340168D01*
X71473824Y-65377500D01*
X71477501Y-65414833D01*
X71488498Y-65526486D01*
X71495938Y-65551014D01*
X71531954Y-65669746D01*
X71602526Y-65801776D01*
X71673701Y-65888502D01*
X71697500Y-65917501D01*
X71726498Y-65941299D01*
X73635318Y-67850120D01*
X73613662Y-68070000D01*
X73638955Y-68326805D01*
X73713862Y-68573741D01*
X73835505Y-68801318D01*
X73999208Y-69000792D01*
X74198682Y-69164495D01*
X74426259Y-69286138D01*
X74673195Y-69361045D01*
X74865649Y-69380000D01*
X74994351Y-69380000D01*
X75186805Y-69361045D01*
X75433741Y-69286138D01*
X75540000Y-69229341D01*
X75540000Y-69444000D01*
X45103830Y-69444000D01*
X45168185Y-69391185D01*
X45247537Y-69294494D01*
X45306502Y-69184180D01*
X45342812Y-69064482D01*
X45355072Y-68940000D01*
X45352000Y-68575750D01*
X45193250Y-68417000D01*
X44069000Y-68417000D01*
X44069000Y-68437000D01*
X43815000Y-68437000D01*
X43815000Y-68417000D01*
X42690750Y-68417000D01*
X42532000Y-68575750D01*
X42528928Y-68940000D01*
X42541188Y-69064482D01*
X42577498Y-69184180D01*
X42636463Y-69294494D01*
X42715815Y-69391185D01*
X42780170Y-69444000D01*
X35959830Y-69444000D01*
X36024185Y-69391185D01*
X36103537Y-69294494D01*
X36162502Y-69184180D01*
X36198812Y-69064482D01*
X36211072Y-68940000D01*
X36208000Y-68575750D01*
X36049250Y-68417000D01*
X34925000Y-68417000D01*
X34925000Y-68437000D01*
X34671000Y-68437000D01*
X34671000Y-68417000D01*
X33546750Y-68417000D01*
X33388000Y-68575750D01*
X33384928Y-68940000D01*
X33397188Y-69064482D01*
X33433498Y-69184180D01*
X33492463Y-69294494D01*
X33571815Y-69391185D01*
X33636170Y-69444000D01*
X32961994Y-69444000D01*
X32990706Y-69409014D01*
X33128599Y-69151034D01*
X33213513Y-68871111D01*
X33242185Y-68580000D01*
X33224398Y-68399400D01*
X50802090Y-68399400D01*
X50832762Y-68500528D01*
X50940527Y-68733629D01*
X51091697Y-68941227D01*
X51280463Y-69115344D01*
X51499570Y-69249289D01*
X51740599Y-69337915D01*
X51943000Y-69215085D01*
X51943000Y-68197000D01*
X52197000Y-68197000D01*
X52197000Y-69215085D01*
X52399401Y-69337915D01*
X52640430Y-69249289D01*
X52859537Y-69115344D01*
X53048303Y-68941227D01*
X53199473Y-68733629D01*
X53307238Y-68500528D01*
X53337910Y-68399400D01*
X53214224Y-68197000D01*
X52197000Y-68197000D01*
X51943000Y-68197000D01*
X50925776Y-68197000D01*
X50802090Y-68399400D01*
X33224398Y-68399400D01*
X33213513Y-68288889D01*
X33128599Y-68008966D01*
X32990706Y-67750986D01*
X32899623Y-67640000D01*
X33384928Y-67640000D01*
X33388000Y-68004250D01*
X33546750Y-68163000D01*
X34671000Y-68163000D01*
X34671000Y-67163750D01*
X34925000Y-67163750D01*
X34925000Y-68163000D01*
X36049250Y-68163000D01*
X36208000Y-68004250D01*
X36211072Y-67640000D01*
X42528928Y-67640000D01*
X42532000Y-68004250D01*
X42690750Y-68163000D01*
X43815000Y-68163000D01*
X43815000Y-67163750D01*
X44069000Y-67163750D01*
X44069000Y-68163000D01*
X45193250Y-68163000D01*
X45352000Y-68004250D01*
X45355072Y-67640000D01*
X45342812Y-67515518D01*
X45306502Y-67395820D01*
X45247537Y-67285506D01*
X45168185Y-67188815D01*
X45071494Y-67109463D01*
X44961180Y-67050498D01*
X44841482Y-67014188D01*
X44717000Y-67001928D01*
X44227750Y-67005000D01*
X44069000Y-67163750D01*
X43815000Y-67163750D01*
X43656250Y-67005000D01*
X43167000Y-67001928D01*
X43042518Y-67014188D01*
X42922820Y-67050498D01*
X42812506Y-67109463D01*
X42715815Y-67188815D01*
X42636463Y-67285506D01*
X42577498Y-67395820D01*
X42541188Y-67515518D01*
X42528928Y-67640000D01*
X36211072Y-67640000D01*
X36198812Y-67515518D01*
X36162502Y-67395820D01*
X36103537Y-67285506D01*
X36024185Y-67188815D01*
X35927494Y-67109463D01*
X35817180Y-67050498D01*
X35697482Y-67014188D01*
X35573000Y-67001928D01*
X35083750Y-67005000D01*
X34925000Y-67163750D01*
X34671000Y-67163750D01*
X34512250Y-67005000D01*
X34023000Y-67001928D01*
X33898518Y-67014188D01*
X33778820Y-67050498D01*
X33668506Y-67109463D01*
X33571815Y-67188815D01*
X33492463Y-67285506D01*
X33433498Y-67395820D01*
X33397188Y-67515518D01*
X33384928Y-67640000D01*
X32899623Y-67640000D01*
X32805134Y-67524866D01*
X32579014Y-67339294D01*
X32514477Y-67304799D01*
X32631355Y-67235178D01*
X32847588Y-67040269D01*
X33021641Y-66806920D01*
X33054654Y-66737609D01*
X46791538Y-66737609D01*
X46795409Y-66775282D01*
X46887579Y-67000533D01*
X47021922Y-67203474D01*
X47193275Y-67376307D01*
X47395054Y-67512390D01*
X47619504Y-67606493D01*
X47858000Y-67655000D01*
X48133000Y-67655000D01*
X48133000Y-66547000D01*
X48387000Y-66547000D01*
X48387000Y-67655000D01*
X48662000Y-67655000D01*
X48900496Y-67606493D01*
X49124946Y-67512390D01*
X49326725Y-67376307D01*
X49498078Y-67203474D01*
X49632421Y-67000533D01*
X49724591Y-66775282D01*
X49728462Y-66737609D01*
X49603731Y-66547000D01*
X48387000Y-66547000D01*
X48133000Y-66547000D01*
X46916269Y-66547000D01*
X46791538Y-66737609D01*
X33054654Y-66737609D01*
X33146825Y-66544099D01*
X33191476Y-66396890D01*
X33070155Y-66167000D01*
X31877000Y-66167000D01*
X31877000Y-66187000D01*
X31623000Y-66187000D01*
X31623000Y-66167000D01*
X31603000Y-66167000D01*
X31603000Y-65913000D01*
X31623000Y-65913000D01*
X31623000Y-65893000D01*
X31877000Y-65893000D01*
X31877000Y-65913000D01*
X33070155Y-65913000D01*
X33191476Y-65683110D01*
X33146825Y-65535901D01*
X33021641Y-65273080D01*
X32847588Y-65039731D01*
X32631355Y-64844822D01*
X32514477Y-64775201D01*
X32579014Y-64740706D01*
X32805134Y-64555134D01*
X32990706Y-64329014D01*
X33128599Y-64071034D01*
X33213513Y-63791111D01*
X33242185Y-63500000D01*
X33240399Y-63481871D01*
X33312752Y-63520545D01*
X33384928Y-63542439D01*
X33384928Y-64440000D01*
X33397188Y-64564482D01*
X33433498Y-64684180D01*
X33492463Y-64794494D01*
X33571815Y-64891185D01*
X33668506Y-64970537D01*
X33778820Y-65029502D01*
X33898518Y-65065812D01*
X34023000Y-65078072D01*
X35573000Y-65078072D01*
X35697482Y-65065812D01*
X35817180Y-65029502D01*
X35927494Y-64970537D01*
X36024185Y-64891185D01*
X36103537Y-64794494D01*
X36162502Y-64684180D01*
X36198812Y-64564482D01*
X36200238Y-64550000D01*
X40312678Y-64550000D01*
X40350000Y-64553676D01*
X40387322Y-64550000D01*
X40387333Y-64550000D01*
X40498986Y-64539003D01*
X40640000Y-64496228D01*
X40781014Y-64539003D01*
X40892667Y-64550000D01*
X40892677Y-64550000D01*
X40930000Y-64553676D01*
X40967323Y-64550000D01*
X42539762Y-64550000D01*
X42541188Y-64564482D01*
X42577498Y-64684180D01*
X42636463Y-64794494D01*
X42715815Y-64891185D01*
X42812506Y-64970537D01*
X42922820Y-65029502D01*
X43042518Y-65065812D01*
X43167000Y-65078072D01*
X44717000Y-65078072D01*
X44841482Y-65065812D01*
X44961180Y-65029502D01*
X45071494Y-64970537D01*
X45168185Y-64891185D01*
X45247537Y-64794494D01*
X45306502Y-64684180D01*
X45342812Y-64564482D01*
X45344238Y-64550000D01*
X46756829Y-64550000D01*
X46767870Y-64662102D01*
X46838489Y-64894901D01*
X46953167Y-65109449D01*
X47107498Y-65297502D01*
X47257348Y-65420481D01*
X47193275Y-65463693D01*
X47021922Y-65636526D01*
X46887579Y-65839467D01*
X46795409Y-66064718D01*
X46791538Y-66102391D01*
X46916269Y-66293000D01*
X48133000Y-66293000D01*
X48133000Y-66273000D01*
X48387000Y-66273000D01*
X48387000Y-66293000D01*
X49603731Y-66293000D01*
X49728462Y-66102391D01*
X49724591Y-66064718D01*
X49632421Y-65839467D01*
X49498078Y-65636526D01*
X49326725Y-65463693D01*
X49262652Y-65420481D01*
X49412502Y-65297502D01*
X49566833Y-65109449D01*
X49681511Y-64894901D01*
X49752130Y-64662102D01*
X49775975Y-64420000D01*
X49752130Y-64177898D01*
X49681511Y-63945099D01*
X49566833Y-63730551D01*
X49412502Y-63542498D01*
X49263238Y-63420000D01*
X49412502Y-63297502D01*
X49566833Y-63109449D01*
X49681511Y-62894901D01*
X49752130Y-62662102D01*
X49775975Y-62420000D01*
X49752130Y-62177898D01*
X49681511Y-61945099D01*
X49566833Y-61730551D01*
X49412502Y-61542498D01*
X49263238Y-61420000D01*
X49412502Y-61297502D01*
X49566833Y-61109449D01*
X49681511Y-60894901D01*
X49752130Y-60662102D01*
X49775975Y-60420000D01*
X49752130Y-60177898D01*
X49681511Y-59945099D01*
X49566833Y-59730551D01*
X49412502Y-59542498D01*
X49373889Y-59510809D01*
X49378387Y-59508405D01*
X49512962Y-59397962D01*
X49623405Y-59263387D01*
X49705472Y-59109851D01*
X49756008Y-58943255D01*
X49773072Y-58770001D01*
X49773072Y-58069999D01*
X49756008Y-57896745D01*
X49705472Y-57730149D01*
X49623405Y-57576613D01*
X49512962Y-57442038D01*
X49378387Y-57331595D01*
X49224851Y-57249528D01*
X49058255Y-57198992D01*
X48885001Y-57181928D01*
X47634999Y-57181928D01*
X47461745Y-57198992D01*
X47295149Y-57249528D01*
X47141613Y-57331595D01*
X47007038Y-57442038D01*
X46896595Y-57576613D01*
X46852024Y-57660000D01*
X46074402Y-57660000D01*
X45953078Y-57538676D01*
X45668603Y-57254202D01*
X45668599Y-57254197D01*
X44999948Y-56585546D01*
X44418403Y-56004002D01*
X44394601Y-55974999D01*
X44278876Y-55880026D01*
X44146847Y-55809454D01*
X44003586Y-55765997D01*
X43891933Y-55755000D01*
X43891922Y-55755000D01*
X43854600Y-55751324D01*
X43817278Y-55755000D01*
X38657333Y-55755000D01*
X38620000Y-55751323D01*
X38582667Y-55755000D01*
X38471014Y-55765997D01*
X38327753Y-55809454D01*
X38195724Y-55880026D01*
X38079999Y-55974999D01*
X38056196Y-56004003D01*
X37849003Y-56211196D01*
X37819999Y-56234999D01*
X37778986Y-56284974D01*
X37725026Y-56350724D01*
X37681450Y-56432248D01*
X37654454Y-56482754D01*
X37610997Y-56626015D01*
X37600000Y-56737668D01*
X37600000Y-56737678D01*
X37596324Y-56775000D01*
X37600000Y-56812323D01*
X37600000Y-56998661D01*
X37491614Y-57056595D01*
X37357038Y-57167038D01*
X37246595Y-57301614D01*
X37164528Y-57455150D01*
X37113992Y-57621746D01*
X37096928Y-57795000D01*
X37096928Y-59045000D01*
X37113992Y-59218254D01*
X37164528Y-59384850D01*
X37246595Y-59538386D01*
X37357038Y-59672962D01*
X37491614Y-59783405D01*
X37645150Y-59865472D01*
X37811746Y-59916008D01*
X37926480Y-59927308D01*
X37048072Y-60805717D01*
X37048072Y-60110000D01*
X37035812Y-59985518D01*
X36999502Y-59865820D01*
X36940537Y-59755506D01*
X36861185Y-59658815D01*
X36764494Y-59579463D01*
X36676570Y-59532466D01*
X36755472Y-59384850D01*
X36806008Y-59218254D01*
X36823072Y-59045000D01*
X36823072Y-57795000D01*
X36806008Y-57621746D01*
X36755472Y-57455150D01*
X36673405Y-57301614D01*
X36562962Y-57167038D01*
X36428386Y-57056595D01*
X36320000Y-56998661D01*
X36320000Y-56552333D01*
X36323677Y-56515000D01*
X36309003Y-56366014D01*
X36265546Y-56222753D01*
X36194974Y-56090724D01*
X36176274Y-56067938D01*
X36100001Y-55974999D01*
X36071003Y-55951201D01*
X35488803Y-55369002D01*
X35465001Y-55339999D01*
X35349276Y-55245026D01*
X35217247Y-55174454D01*
X35073986Y-55130997D01*
X34962333Y-55120000D01*
X34962322Y-55120000D01*
X34925000Y-55116324D01*
X34887678Y-55120000D01*
X33238072Y-55120000D01*
X33238072Y-55030000D01*
X33236693Y-55016000D01*
X50767581Y-55016000D01*
X50800000Y-55019193D01*
X50832419Y-55016000D01*
X50842309Y-55015026D01*
X50929383Y-55006450D01*
X51053793Y-54968710D01*
X51094863Y-54946758D01*
X51139208Y-55000792D01*
X51139208Y-55000792D01*
G37*
X51139208Y-55000792D02*
X51223539Y-55070000D01*
X51139208Y-55139208D01*
X50975505Y-55338682D01*
X50853862Y-55566259D01*
X50778955Y-55813195D01*
X50753662Y-56070000D01*
X50778955Y-56326805D01*
X50853862Y-56573741D01*
X50975505Y-56801318D01*
X51139208Y-57000792D01*
X51223539Y-57070000D01*
X51139208Y-57139208D01*
X50975505Y-57338682D01*
X50853862Y-57566259D01*
X50778955Y-57813195D01*
X50753662Y-58070000D01*
X50778955Y-58326805D01*
X50853862Y-58573741D01*
X50975505Y-58801318D01*
X51139208Y-59000792D01*
X51223539Y-59070000D01*
X51139208Y-59139208D01*
X50975505Y-59338682D01*
X50853862Y-59566259D01*
X50778955Y-59813195D01*
X50753662Y-60070000D01*
X50778955Y-60326805D01*
X50853862Y-60573741D01*
X50975505Y-60801318D01*
X51139208Y-61000792D01*
X51223539Y-61070000D01*
X51139208Y-61139208D01*
X50975505Y-61338682D01*
X50853862Y-61566259D01*
X50778955Y-61813195D01*
X50753662Y-62070000D01*
X50778955Y-62326805D01*
X50853862Y-62573741D01*
X50975505Y-62801318D01*
X51139208Y-63000792D01*
X51223539Y-63070000D01*
X51139208Y-63139208D01*
X50975505Y-63338682D01*
X50853862Y-63566259D01*
X50778955Y-63813195D01*
X50753662Y-64070000D01*
X50778955Y-64326805D01*
X50853862Y-64573741D01*
X50975505Y-64801318D01*
X51139208Y-65000792D01*
X51223539Y-65070000D01*
X51139208Y-65139208D01*
X50975505Y-65338682D01*
X50853862Y-65566259D01*
X50778955Y-65813195D01*
X50753662Y-66070000D01*
X50778955Y-66326805D01*
X50853862Y-66573741D01*
X50975505Y-66801318D01*
X51139208Y-67000792D01*
X51227648Y-67073372D01*
X51091697Y-67198773D01*
X50940527Y-67406371D01*
X50832762Y-67639472D01*
X50802090Y-67740600D01*
X50925776Y-67943000D01*
X51943000Y-67943000D01*
X51943000Y-67923000D01*
X52197000Y-67923000D01*
X52197000Y-67943000D01*
X53214224Y-67943000D01*
X53337910Y-67740600D01*
X53307238Y-67639472D01*
X53199473Y-67406371D01*
X53048303Y-67198773D01*
X52912352Y-67073372D01*
X53000792Y-67000792D01*
X53164495Y-66801318D01*
X53286138Y-66573741D01*
X53361045Y-66326805D01*
X53386338Y-66070000D01*
X53364682Y-65850120D01*
X54523508Y-64691295D01*
X54552500Y-64667502D01*
X54576294Y-64638509D01*
X54576298Y-64638505D01*
X54641319Y-64559276D01*
X54647473Y-64551777D01*
X54718045Y-64419748D01*
X54761502Y-64276487D01*
X54764973Y-64241250D01*
X54889502Y-64241250D01*
X54889502Y-64082502D01*
X55048250Y-64241250D01*
X55187500Y-64244322D01*
X55311982Y-64232062D01*
X55431680Y-64195752D01*
X55541994Y-64136787D01*
X55638685Y-64057435D01*
X55718037Y-63960744D01*
X55777002Y-63850430D01*
X55813312Y-63730732D01*
X55825572Y-63606250D01*
X55822500Y-63435750D01*
X55663750Y-63277000D01*
X54889500Y-63277000D01*
X54889500Y-63297000D01*
X54772499Y-63297000D01*
X54772499Y-63003000D01*
X54889500Y-63003000D01*
X54889500Y-63023000D01*
X55663750Y-63023000D01*
X55800974Y-62885776D01*
X58556388Y-65641190D01*
X58519528Y-65710149D01*
X58468992Y-65876745D01*
X58451928Y-66049999D01*
X58451928Y-67300001D01*
X58468992Y-67473255D01*
X58519528Y-67639851D01*
X58601595Y-67793387D01*
X58712038Y-67927962D01*
X58846613Y-68038405D01*
X59000149Y-68120472D01*
X59166745Y-68171008D01*
X59339999Y-68188072D01*
X60040001Y-68188072D01*
X60213255Y-68171008D01*
X60379851Y-68120472D01*
X60533387Y-68038405D01*
X60667962Y-67927962D01*
X60778405Y-67793387D01*
X60780810Y-67788888D01*
X60812499Y-67827502D01*
X61000552Y-67981833D01*
X61215100Y-68096511D01*
X61447899Y-68167130D01*
X61690000Y-68190975D01*
X61932102Y-68167130D01*
X62164901Y-68096511D01*
X62379449Y-67981833D01*
X62567502Y-67827502D01*
X62690000Y-67678237D01*
X62812499Y-67827502D01*
X62939281Y-67931549D01*
X62940606Y-67945000D01*
X62940998Y-67948985D01*
X62984454Y-68092246D01*
X63055026Y-68224276D01*
X63108053Y-68288889D01*
X63150000Y-68340001D01*
X63178998Y-68363799D01*
X63721209Y-68906011D01*
X63745008Y-68935010D01*
X63860733Y-69029983D01*
X63992762Y-69100555D01*
X64136023Y-69144012D01*
X64247676Y-69155009D01*
X64247684Y-69155009D01*
X64285009Y-69158685D01*
X64322334Y-69155009D01*
X69362669Y-69155009D01*
X69399991Y-69158685D01*
X69437313Y-69155009D01*
X69437324Y-69155009D01*
X69548977Y-69144012D01*
X69692238Y-69100555D01*
X69824267Y-69029983D01*
X69939992Y-68935010D01*
X69963794Y-68906007D01*
X70996009Y-67873794D01*
X71025001Y-67850001D01*
X71048795Y-67821008D01*
X71048799Y-67821004D01*
X71119973Y-67734277D01*
X71119974Y-67734276D01*
X71190546Y-67602247D01*
X71234003Y-67458986D01*
X71245000Y-67347333D01*
X71245000Y-67347324D01*
X71248676Y-67310001D01*
X71245000Y-67272678D01*
X71245000Y-63891592D01*
X71281963Y-63960744D01*
X71361315Y-64057435D01*
X71458006Y-64136787D01*
X71477500Y-64147207D01*
X71477501Y-65340168D01*
X71473824Y-65377500D01*
X71477501Y-65414833D01*
X71488498Y-65526486D01*
X71495938Y-65551014D01*
X71531954Y-65669746D01*
X71602526Y-65801776D01*
X71673701Y-65888502D01*
X71697500Y-65917501D01*
X71726498Y-65941299D01*
X73635318Y-67850120D01*
X73613662Y-68070000D01*
X73638955Y-68326805D01*
X73713862Y-68573741D01*
X73835505Y-68801318D01*
X73999208Y-69000792D01*
X74198682Y-69164495D01*
X74426259Y-69286138D01*
X74673195Y-69361045D01*
X74865649Y-69380000D01*
X74994351Y-69380000D01*
X75186805Y-69361045D01*
X75433741Y-69286138D01*
X75540000Y-69229341D01*
X75540000Y-69444000D01*
X45103830Y-69444000D01*
X45168185Y-69391185D01*
X45247537Y-69294494D01*
X45306502Y-69184180D01*
X45342812Y-69064482D01*
X45355072Y-68940000D01*
X45352000Y-68575750D01*
X45193250Y-68417000D01*
X44069000Y-68417000D01*
X44069000Y-68437000D01*
X43815000Y-68437000D01*
X43815000Y-68417000D01*
X42690750Y-68417000D01*
X42532000Y-68575750D01*
X42528928Y-68940000D01*
X42541188Y-69064482D01*
X42577498Y-69184180D01*
X42636463Y-69294494D01*
X42715815Y-69391185D01*
X42780170Y-69444000D01*
X35959830Y-69444000D01*
X36024185Y-69391185D01*
X36103537Y-69294494D01*
X36162502Y-69184180D01*
X36198812Y-69064482D01*
X36211072Y-68940000D01*
X36208000Y-68575750D01*
X36049250Y-68417000D01*
X34925000Y-68417000D01*
X34925000Y-68437000D01*
X34671000Y-68437000D01*
X34671000Y-68417000D01*
X33546750Y-68417000D01*
X33388000Y-68575750D01*
X33384928Y-68940000D01*
X33397188Y-69064482D01*
X33433498Y-69184180D01*
X33492463Y-69294494D01*
X33571815Y-69391185D01*
X33636170Y-69444000D01*
X32961994Y-69444000D01*
X32990706Y-69409014D01*
X33128599Y-69151034D01*
X33213513Y-68871111D01*
X33242185Y-68580000D01*
X33224398Y-68399400D01*
X50802090Y-68399400D01*
X50832762Y-68500528D01*
X50940527Y-68733629D01*
X51091697Y-68941227D01*
X51280463Y-69115344D01*
X51499570Y-69249289D01*
X51740599Y-69337915D01*
X51943000Y-69215085D01*
X51943000Y-68197000D01*
X52197000Y-68197000D01*
X52197000Y-69215085D01*
X52399401Y-69337915D01*
X52640430Y-69249289D01*
X52859537Y-69115344D01*
X53048303Y-68941227D01*
X53199473Y-68733629D01*
X53307238Y-68500528D01*
X53337910Y-68399400D01*
X53214224Y-68197000D01*
X52197000Y-68197000D01*
X51943000Y-68197000D01*
X50925776Y-68197000D01*
X50802090Y-68399400D01*
X33224398Y-68399400D01*
X33213513Y-68288889D01*
X33128599Y-68008966D01*
X32990706Y-67750986D01*
X32899623Y-67640000D01*
X33384928Y-67640000D01*
X33388000Y-68004250D01*
X33546750Y-68163000D01*
X34671000Y-68163000D01*
X34671000Y-67163750D01*
X34925000Y-67163750D01*
X34925000Y-68163000D01*
X36049250Y-68163000D01*
X36208000Y-68004250D01*
X36211072Y-67640000D01*
X42528928Y-67640000D01*
X42532000Y-68004250D01*
X42690750Y-68163000D01*
X43815000Y-68163000D01*
X43815000Y-67163750D01*
X44069000Y-67163750D01*
X44069000Y-68163000D01*
X45193250Y-68163000D01*
X45352000Y-68004250D01*
X45355072Y-67640000D01*
X45342812Y-67515518D01*
X45306502Y-67395820D01*
X45247537Y-67285506D01*
X45168185Y-67188815D01*
X45071494Y-67109463D01*
X44961180Y-67050498D01*
X44841482Y-67014188D01*
X44717000Y-67001928D01*
X44227750Y-67005000D01*
X44069000Y-67163750D01*
X43815000Y-67163750D01*
X43656250Y-67005000D01*
X43167000Y-67001928D01*
X43042518Y-67014188D01*
X42922820Y-67050498D01*
X42812506Y-67109463D01*
X42715815Y-67188815D01*
X42636463Y-67285506D01*
X42577498Y-67395820D01*
X42541188Y-67515518D01*
X42528928Y-67640000D01*
X36211072Y-67640000D01*
X36198812Y-67515518D01*
X36162502Y-67395820D01*
X36103537Y-67285506D01*
X36024185Y-67188815D01*
X35927494Y-67109463D01*
X35817180Y-67050498D01*
X35697482Y-67014188D01*
X35573000Y-67001928D01*
X35083750Y-67005000D01*
X34925000Y-67163750D01*
X34671000Y-67163750D01*
X34512250Y-67005000D01*
X34023000Y-67001928D01*
X33898518Y-67014188D01*
X33778820Y-67050498D01*
X33668506Y-67109463D01*
X33571815Y-67188815D01*
X33492463Y-67285506D01*
X33433498Y-67395820D01*
X33397188Y-67515518D01*
X33384928Y-67640000D01*
X32899623Y-67640000D01*
X32805134Y-67524866D01*
X32579014Y-67339294D01*
X32514477Y-67304799D01*
X32631355Y-67235178D01*
X32847588Y-67040269D01*
X33021641Y-66806920D01*
X33054654Y-66737609D01*
X46791538Y-66737609D01*
X46795409Y-66775282D01*
X46887579Y-67000533D01*
X47021922Y-67203474D01*
X47193275Y-67376307D01*
X47395054Y-67512390D01*
X47619504Y-67606493D01*
X47858000Y-67655000D01*
X48133000Y-67655000D01*
X48133000Y-66547000D01*
X48387000Y-66547000D01*
X48387000Y-67655000D01*
X48662000Y-67655000D01*
X48900496Y-67606493D01*
X49124946Y-67512390D01*
X49326725Y-67376307D01*
X49498078Y-67203474D01*
X49632421Y-67000533D01*
X49724591Y-66775282D01*
X49728462Y-66737609D01*
X49603731Y-66547000D01*
X48387000Y-66547000D01*
X48133000Y-66547000D01*
X46916269Y-66547000D01*
X46791538Y-66737609D01*
X33054654Y-66737609D01*
X33146825Y-66544099D01*
X33191476Y-66396890D01*
X33070155Y-66167000D01*
X31877000Y-66167000D01*
X31877000Y-66187000D01*
X31623000Y-66187000D01*
X31623000Y-66167000D01*
X31603000Y-66167000D01*
X31603000Y-65913000D01*
X31623000Y-65913000D01*
X31623000Y-65893000D01*
X31877000Y-65893000D01*
X31877000Y-65913000D01*
X33070155Y-65913000D01*
X33191476Y-65683110D01*
X33146825Y-65535901D01*
X33021641Y-65273080D01*
X32847588Y-65039731D01*
X32631355Y-64844822D01*
X32514477Y-64775201D01*
X32579014Y-64740706D01*
X32805134Y-64555134D01*
X32990706Y-64329014D01*
X33128599Y-64071034D01*
X33213513Y-63791111D01*
X33242185Y-63500000D01*
X33240399Y-63481871D01*
X33312752Y-63520545D01*
X33384928Y-63542439D01*
X33384928Y-64440000D01*
X33397188Y-64564482D01*
X33433498Y-64684180D01*
X33492463Y-64794494D01*
X33571815Y-64891185D01*
X33668506Y-64970537D01*
X33778820Y-65029502D01*
X33898518Y-65065812D01*
X34023000Y-65078072D01*
X35573000Y-65078072D01*
X35697482Y-65065812D01*
X35817180Y-65029502D01*
X35927494Y-64970537D01*
X36024185Y-64891185D01*
X36103537Y-64794494D01*
X36162502Y-64684180D01*
X36198812Y-64564482D01*
X36200238Y-64550000D01*
X40312678Y-64550000D01*
X40350000Y-64553676D01*
X40387322Y-64550000D01*
X40387333Y-64550000D01*
X40498986Y-64539003D01*
X40640000Y-64496228D01*
X40781014Y-64539003D01*
X40892667Y-64550000D01*
X40892677Y-64550000D01*
X40930000Y-64553676D01*
X40967323Y-64550000D01*
X42539762Y-64550000D01*
X42541188Y-64564482D01*
X42577498Y-64684180D01*
X42636463Y-64794494D01*
X42715815Y-64891185D01*
X42812506Y-64970537D01*
X42922820Y-65029502D01*
X43042518Y-65065812D01*
X43167000Y-65078072D01*
X44717000Y-65078072D01*
X44841482Y-65065812D01*
X44961180Y-65029502D01*
X45071494Y-64970537D01*
X45168185Y-64891185D01*
X45247537Y-64794494D01*
X45306502Y-64684180D01*
X45342812Y-64564482D01*
X45344238Y-64550000D01*
X46756829Y-64550000D01*
X46767870Y-64662102D01*
X46838489Y-64894901D01*
X46953167Y-65109449D01*
X47107498Y-65297502D01*
X47257348Y-65420481D01*
X47193275Y-65463693D01*
X47021922Y-65636526D01*
X46887579Y-65839467D01*
X46795409Y-66064718D01*
X46791538Y-66102391D01*
X46916269Y-66293000D01*
X48133000Y-66293000D01*
X48133000Y-66273000D01*
X48387000Y-66273000D01*
X48387000Y-66293000D01*
X49603731Y-66293000D01*
X49728462Y-66102391D01*
X49724591Y-66064718D01*
X49632421Y-65839467D01*
X49498078Y-65636526D01*
X49326725Y-65463693D01*
X49262652Y-65420481D01*
X49412502Y-65297502D01*
X49566833Y-65109449D01*
X49681511Y-64894901D01*
X49752130Y-64662102D01*
X49775975Y-64420000D01*
X49752130Y-64177898D01*
X49681511Y-63945099D01*
X49566833Y-63730551D01*
X49412502Y-63542498D01*
X49263238Y-63420000D01*
X49412502Y-63297502D01*
X49566833Y-63109449D01*
X49681511Y-62894901D01*
X49752130Y-62662102D01*
X49775975Y-62420000D01*
X49752130Y-62177898D01*
X49681511Y-61945099D01*
X49566833Y-61730551D01*
X49412502Y-61542498D01*
X49263238Y-61420000D01*
X49412502Y-61297502D01*
X49566833Y-61109449D01*
X49681511Y-60894901D01*
X49752130Y-60662102D01*
X49775975Y-60420000D01*
X49752130Y-60177898D01*
X49681511Y-59945099D01*
X49566833Y-59730551D01*
X49412502Y-59542498D01*
X49373889Y-59510809D01*
X49378387Y-59508405D01*
X49512962Y-59397962D01*
X49623405Y-59263387D01*
X49705472Y-59109851D01*
X49756008Y-58943255D01*
X49773072Y-58770001D01*
X49773072Y-58069999D01*
X49756008Y-57896745D01*
X49705472Y-57730149D01*
X49623405Y-57576613D01*
X49512962Y-57442038D01*
X49378387Y-57331595D01*
X49224851Y-57249528D01*
X49058255Y-57198992D01*
X48885001Y-57181928D01*
X47634999Y-57181928D01*
X47461745Y-57198992D01*
X47295149Y-57249528D01*
X47141613Y-57331595D01*
X47007038Y-57442038D01*
X46896595Y-57576613D01*
X46852024Y-57660000D01*
X46074402Y-57660000D01*
X45953078Y-57538676D01*
X45668603Y-57254202D01*
X45668599Y-57254197D01*
X44999948Y-56585546D01*
X44418403Y-56004002D01*
X44394601Y-55974999D01*
X44278876Y-55880026D01*
X44146847Y-55809454D01*
X44003586Y-55765997D01*
X43891933Y-55755000D01*
X43891922Y-55755000D01*
X43854600Y-55751324D01*
X43817278Y-55755000D01*
X38657333Y-55755000D01*
X38620000Y-55751323D01*
X38582667Y-55755000D01*
X38471014Y-55765997D01*
X38327753Y-55809454D01*
X38195724Y-55880026D01*
X38079999Y-55974999D01*
X38056196Y-56004003D01*
X37849003Y-56211196D01*
X37819999Y-56234999D01*
X37778986Y-56284974D01*
X37725026Y-56350724D01*
X37681450Y-56432248D01*
X37654454Y-56482754D01*
X37610997Y-56626015D01*
X37600000Y-56737668D01*
X37600000Y-56737678D01*
X37596324Y-56775000D01*
X37600000Y-56812323D01*
X37600000Y-56998661D01*
X37491614Y-57056595D01*
X37357038Y-57167038D01*
X37246595Y-57301614D01*
X37164528Y-57455150D01*
X37113992Y-57621746D01*
X37096928Y-57795000D01*
X37096928Y-59045000D01*
X37113992Y-59218254D01*
X37164528Y-59384850D01*
X37246595Y-59538386D01*
X37357038Y-59672962D01*
X37491614Y-59783405D01*
X37645150Y-59865472D01*
X37811746Y-59916008D01*
X37926480Y-59927308D01*
X37048072Y-60805717D01*
X37048072Y-60110000D01*
X37035812Y-59985518D01*
X36999502Y-59865820D01*
X36940537Y-59755506D01*
X36861185Y-59658815D01*
X36764494Y-59579463D01*
X36676570Y-59532466D01*
X36755472Y-59384850D01*
X36806008Y-59218254D01*
X36823072Y-59045000D01*
X36823072Y-57795000D01*
X36806008Y-57621746D01*
X36755472Y-57455150D01*
X36673405Y-57301614D01*
X36562962Y-57167038D01*
X36428386Y-57056595D01*
X36320000Y-56998661D01*
X36320000Y-56552333D01*
X36323677Y-56515000D01*
X36309003Y-56366014D01*
X36265546Y-56222753D01*
X36194974Y-56090724D01*
X36176274Y-56067938D01*
X36100001Y-55974999D01*
X36071003Y-55951201D01*
X35488803Y-55369002D01*
X35465001Y-55339999D01*
X35349276Y-55245026D01*
X35217247Y-55174454D01*
X35073986Y-55130997D01*
X34962333Y-55120000D01*
X34962322Y-55120000D01*
X34925000Y-55116324D01*
X34887678Y-55120000D01*
X33238072Y-55120000D01*
X33238072Y-55030000D01*
X33236693Y-55016000D01*
X50767581Y-55016000D01*
X50800000Y-55019193D01*
X50832419Y-55016000D01*
X50842309Y-55015026D01*
X50929383Y-55006450D01*
X51053793Y-54968710D01*
X51094863Y-54946758D01*
X51139208Y-55000792D01*
G36*
X71174428Y-51606250D02*
G01*
X71186688Y-51730732D01*
X71222998Y-51850430D01*
X71249494Y-51900000D01*
X71222998Y-51949570D01*
X71186688Y-52069268D01*
X71174428Y-52193750D01*
X71174428Y-53106250D01*
X71186688Y-53230732D01*
X71222998Y-53350430D01*
X71249494Y-53400000D01*
X71222998Y-53449570D01*
X71186688Y-53569268D01*
X71174428Y-53693750D01*
X71174428Y-54606250D01*
X71186688Y-54730732D01*
X71222998Y-54850430D01*
X71249494Y-54900000D01*
X71222998Y-54949570D01*
X71186688Y-55069268D01*
X71174428Y-55193750D01*
X71174428Y-56106250D01*
X71186688Y-56230732D01*
X71222998Y-56350430D01*
X71249494Y-56400000D01*
X71222998Y-56449570D01*
X71186688Y-56569268D01*
X71174428Y-56693750D01*
X71174428Y-57606250D01*
X71186688Y-57730732D01*
X71222998Y-57850430D01*
X71249494Y-57900000D01*
X71222998Y-57949570D01*
X71186688Y-58069268D01*
X71174428Y-58193750D01*
X71174428Y-59106250D01*
X71186688Y-59230732D01*
X71222998Y-59350430D01*
X71244825Y-59391265D01*
X71146014Y-59400997D01*
X71002753Y-59444454D01*
X70870724Y-59515026D01*
X70754999Y-59609999D01*
X70731201Y-59638997D01*
X69339003Y-61031196D01*
X69309999Y-61054999D01*
X69254871Y-61122174D01*
X69215026Y-61170724D01*
X69147261Y-61297502D01*
X69144454Y-61302754D01*
X69100997Y-61446015D01*
X69090000Y-61557668D01*
X69090000Y-61557678D01*
X69086324Y-61595000D01*
X69090000Y-61632323D01*
X69090001Y-66993787D01*
X68904118Y-67179670D01*
X68925000Y-67077000D01*
X68925000Y-66802000D01*
X67817000Y-66802000D01*
X67817000Y-66822000D01*
X67563000Y-66822000D01*
X67563000Y-66802000D01*
X67543000Y-66802000D01*
X67543000Y-66548000D01*
X67563000Y-66548000D01*
X67563000Y-65331269D01*
X67817000Y-65331269D01*
X67817000Y-66548000D01*
X68925000Y-66548000D01*
X68925000Y-66273000D01*
X68876493Y-66034504D01*
X68782390Y-65810054D01*
X68646307Y-65608275D01*
X68473474Y-65436922D01*
X68270533Y-65302579D01*
X68045282Y-65210409D01*
X68007609Y-65206538D01*
X67817000Y-65331269D01*
X67563000Y-65331269D01*
X67372391Y-65206538D01*
X67334718Y-65210409D01*
X67109467Y-65302579D01*
X66906526Y-65436922D01*
X66733693Y-65608275D01*
X66690481Y-65672348D01*
X66567502Y-65522498D01*
X66450000Y-65426067D01*
X66450000Y-65157325D01*
X66453676Y-65120000D01*
X66450000Y-65082675D01*
X66450000Y-65082667D01*
X66439003Y-64971014D01*
X66395546Y-64827753D01*
X66324974Y-64695724D01*
X66230001Y-64579999D01*
X66200997Y-64556196D01*
X65903804Y-64259003D01*
X65880001Y-64229999D01*
X65764276Y-64135026D01*
X65632247Y-64064454D01*
X65488986Y-64020997D01*
X65377333Y-64010000D01*
X65377322Y-64010000D01*
X65340000Y-64006324D01*
X65302678Y-64010000D01*
X60639802Y-64010000D01*
X56763750Y-60133949D01*
X56763750Y-53253572D01*
X56767426Y-53216249D01*
X56763750Y-53178926D01*
X56763750Y-53178917D01*
X56752753Y-53067264D01*
X56709296Y-52924003D01*
X56638724Y-52791974D01*
X56612484Y-52760000D01*
X56567549Y-52705246D01*
X56567545Y-52705242D01*
X56543751Y-52676249D01*
X56514757Y-52652455D01*
X56001303Y-52139002D01*
X55977501Y-52109999D01*
X55861776Y-52015026D01*
X55784295Y-51973611D01*
X55777002Y-51949570D01*
X55750506Y-51900000D01*
X55777002Y-51850430D01*
X55813312Y-51730732D01*
X55825572Y-51606250D01*
X55825572Y-50825000D01*
X71174428Y-50825000D01*
X71174428Y-51606250D01*
X71174428Y-51606250D01*
G37*
X71174428Y-51606250D02*
X71186688Y-51730732D01*
X71222998Y-51850430D01*
X71249494Y-51900000D01*
X71222998Y-51949570D01*
X71186688Y-52069268D01*
X71174428Y-52193750D01*
X71174428Y-53106250D01*
X71186688Y-53230732D01*
X71222998Y-53350430D01*
X71249494Y-53400000D01*
X71222998Y-53449570D01*
X71186688Y-53569268D01*
X71174428Y-53693750D01*
X71174428Y-54606250D01*
X71186688Y-54730732D01*
X71222998Y-54850430D01*
X71249494Y-54900000D01*
X71222998Y-54949570D01*
X71186688Y-55069268D01*
X71174428Y-55193750D01*
X71174428Y-56106250D01*
X71186688Y-56230732D01*
X71222998Y-56350430D01*
X71249494Y-56400000D01*
X71222998Y-56449570D01*
X71186688Y-56569268D01*
X71174428Y-56693750D01*
X71174428Y-57606250D01*
X71186688Y-57730732D01*
X71222998Y-57850430D01*
X71249494Y-57900000D01*
X71222998Y-57949570D01*
X71186688Y-58069268D01*
X71174428Y-58193750D01*
X71174428Y-59106250D01*
X71186688Y-59230732D01*
X71222998Y-59350430D01*
X71244825Y-59391265D01*
X71146014Y-59400997D01*
X71002753Y-59444454D01*
X70870724Y-59515026D01*
X70754999Y-59609999D01*
X70731201Y-59638997D01*
X69339003Y-61031196D01*
X69309999Y-61054999D01*
X69254871Y-61122174D01*
X69215026Y-61170724D01*
X69147261Y-61297502D01*
X69144454Y-61302754D01*
X69100997Y-61446015D01*
X69090000Y-61557668D01*
X69090000Y-61557678D01*
X69086324Y-61595000D01*
X69090000Y-61632323D01*
X69090001Y-66993787D01*
X68904118Y-67179670D01*
X68925000Y-67077000D01*
X68925000Y-66802000D01*
X67817000Y-66802000D01*
X67817000Y-66822000D01*
X67563000Y-66822000D01*
X67563000Y-66802000D01*
X67543000Y-66802000D01*
X67543000Y-66548000D01*
X67563000Y-66548000D01*
X67563000Y-65331269D01*
X67817000Y-65331269D01*
X67817000Y-66548000D01*
X68925000Y-66548000D01*
X68925000Y-66273000D01*
X68876493Y-66034504D01*
X68782390Y-65810054D01*
X68646307Y-65608275D01*
X68473474Y-65436922D01*
X68270533Y-65302579D01*
X68045282Y-65210409D01*
X68007609Y-65206538D01*
X67817000Y-65331269D01*
X67563000Y-65331269D01*
X67372391Y-65206538D01*
X67334718Y-65210409D01*
X67109467Y-65302579D01*
X66906526Y-65436922D01*
X66733693Y-65608275D01*
X66690481Y-65672348D01*
X66567502Y-65522498D01*
X66450000Y-65426067D01*
X66450000Y-65157325D01*
X66453676Y-65120000D01*
X66450000Y-65082675D01*
X66450000Y-65082667D01*
X66439003Y-64971014D01*
X66395546Y-64827753D01*
X66324974Y-64695724D01*
X66230001Y-64579999D01*
X66200997Y-64556196D01*
X65903804Y-64259003D01*
X65880001Y-64229999D01*
X65764276Y-64135026D01*
X65632247Y-64064454D01*
X65488986Y-64020997D01*
X65377333Y-64010000D01*
X65377322Y-64010000D01*
X65340000Y-64006324D01*
X65302678Y-64010000D01*
X60639802Y-64010000D01*
X56763750Y-60133949D01*
X56763750Y-53253572D01*
X56767426Y-53216249D01*
X56763750Y-53178926D01*
X56763750Y-53178917D01*
X56752753Y-53067264D01*
X56709296Y-52924003D01*
X56638724Y-52791974D01*
X56612484Y-52760000D01*
X56567549Y-52705246D01*
X56567545Y-52705242D01*
X56543751Y-52676249D01*
X56514757Y-52652455D01*
X56001303Y-52139002D01*
X55977501Y-52109999D01*
X55861776Y-52015026D01*
X55784295Y-51973611D01*
X55777002Y-51949570D01*
X55750506Y-51900000D01*
X55777002Y-51850430D01*
X55813312Y-51730732D01*
X55825572Y-51606250D01*
X55825572Y-50825000D01*
X71174428Y-50825000D01*
X71174428Y-51606250D01*
M02*
