G04 #@! TF.GenerationSoftware,KiCad,Pcbnew,(5.1.2)-1*
G04 #@! TF.CreationDate,2021-12-05T07:22:55+09:00*
G04 #@! TF.ProjectId,ESP32C3_downloader,45535033-3243-4335-9f64-6f776e6c6f61,rev?*
G04 #@! TF.SameCoordinates,Original*
G04 #@! TF.FileFunction,Legend,Top*
G04 #@! TF.FilePolarity,Positive*
%FSLAX46Y46*%
G04 Gerber Fmt 4.6, Leading zero omitted, Abs format (unit mm)*
G04 Created by KiCad (PCBNEW (5.1.2)-1) date 2021-12-05 07:22:55*
%MOMM*%
%LPD*%
G04 APERTURE LIST*
%ADD10C,0.120000*%
%ADD11C,0.150000*%
G04 APERTURE END LIST*
D10*
X50070000Y-56360000D02*
X45350000Y-56360000D01*
X45350000Y-56360000D02*
X45350000Y-68480000D01*
X45350000Y-68480000D02*
X50070000Y-68480000D01*
X50070000Y-68480000D02*
X50070000Y-56360000D01*
X50070000Y-58120000D02*
X50270000Y-58120000D01*
X50270000Y-58120000D02*
X50270000Y-57820000D01*
X50270000Y-57820000D02*
X50070000Y-57820000D01*
X50170000Y-58120000D02*
X50170000Y-57820000D01*
X50070000Y-58920000D02*
X49460000Y-58920000D01*
X49460000Y-58920000D02*
X49460000Y-56970000D01*
X49460000Y-56970000D02*
X45960000Y-56970000D01*
X45960000Y-56970000D02*
X45960000Y-67870000D01*
X45960000Y-67870000D02*
X49460000Y-67870000D01*
X49460000Y-67870000D02*
X49460000Y-65920000D01*
X49460000Y-65920000D02*
X50070000Y-65920000D01*
X48760000Y-56360000D02*
X48760000Y-56970000D01*
X47460000Y-56360000D02*
X47460000Y-56970000D01*
X48760000Y-68480000D02*
X48760000Y-67870000D01*
X47460000Y-68480000D02*
X47460000Y-67870000D01*
X45960000Y-59320000D02*
X46460000Y-59320000D01*
X46460000Y-59320000D02*
X46460000Y-59520000D01*
X46460000Y-59520000D02*
X45960000Y-59520000D01*
X45960000Y-59420000D02*
X46460000Y-59420000D01*
X45960000Y-61320000D02*
X46460000Y-61320000D01*
X46460000Y-61320000D02*
X46460000Y-61520000D01*
X46460000Y-61520000D02*
X45960000Y-61520000D01*
X45960000Y-61420000D02*
X46460000Y-61420000D01*
X45960000Y-63320000D02*
X46460000Y-63320000D01*
X46460000Y-63320000D02*
X46460000Y-63520000D01*
X46460000Y-63520000D02*
X45960000Y-63520000D01*
X45960000Y-63420000D02*
X46460000Y-63420000D01*
X45960000Y-65320000D02*
X46460000Y-65320000D01*
X46460000Y-65320000D02*
X46460000Y-65520000D01*
X46460000Y-65520000D02*
X45960000Y-65520000D01*
X45960000Y-65420000D02*
X46460000Y-65420000D01*
X50370000Y-57310000D02*
X50370000Y-56060000D01*
X50370000Y-56060000D02*
X49120000Y-56060000D01*
D11*
X36325000Y-57785000D02*
X36325000Y-59055000D01*
X36325000Y-58420000D02*
X37595000Y-57785000D01*
X37595000Y-57785000D02*
X37595000Y-59055000D01*
X37595000Y-59055000D02*
X36325000Y-58420000D01*
X42545000Y-59055000D02*
X41275000Y-58420000D01*
X42545000Y-57785000D02*
X42545000Y-59055000D01*
X41275000Y-58420000D02*
X42545000Y-57785000D01*
X41275000Y-57785000D02*
X41275000Y-59055000D01*
D10*
X51010000Y-69130000D02*
X53130000Y-69130000D01*
X51010000Y-53070000D02*
X51010000Y-69130000D01*
X53130000Y-53070000D02*
X53130000Y-69130000D01*
X51010000Y-53070000D02*
X53130000Y-53070000D01*
X51010000Y-52070000D02*
X51010000Y-51010000D01*
X51010000Y-51010000D02*
X52070000Y-51010000D01*
X73870000Y-51010000D02*
X74930000Y-51010000D01*
X73870000Y-52070000D02*
X73870000Y-51010000D01*
X73870000Y-53070000D02*
X75990000Y-53070000D01*
X75990000Y-53070000D02*
X75990000Y-69130000D01*
X73870000Y-53070000D02*
X73870000Y-69130000D01*
X73870000Y-69130000D02*
X75990000Y-69130000D01*
X57330000Y-64565000D02*
X57330000Y-65815000D01*
X58580000Y-64565000D02*
X57330000Y-64565000D01*
X66690000Y-68975000D02*
X66690000Y-68475000D01*
X66790000Y-68475000D02*
X66790000Y-68975000D01*
X66590000Y-68475000D02*
X66790000Y-68475000D01*
X66590000Y-68975000D02*
X66590000Y-68475000D01*
X64690000Y-68975000D02*
X64690000Y-68475000D01*
X64790000Y-68475000D02*
X64790000Y-68975000D01*
X64590000Y-68475000D02*
X64790000Y-68475000D01*
X64590000Y-68975000D02*
X64590000Y-68475000D01*
X62690000Y-68975000D02*
X62690000Y-68475000D01*
X62790000Y-68475000D02*
X62790000Y-68975000D01*
X62590000Y-68475000D02*
X62790000Y-68475000D01*
X62590000Y-68975000D02*
X62590000Y-68475000D01*
X60690000Y-68975000D02*
X60690000Y-68475000D01*
X60790000Y-68475000D02*
X60790000Y-68975000D01*
X60590000Y-68475000D02*
X60790000Y-68475000D01*
X60590000Y-68975000D02*
X60590000Y-68475000D01*
X69750000Y-67475000D02*
X69140000Y-67475000D01*
X69750000Y-66175000D02*
X69140000Y-66175000D01*
X57630000Y-67475000D02*
X58240000Y-67475000D01*
X57630000Y-66175000D02*
X58240000Y-66175000D01*
X67190000Y-65475000D02*
X67190000Y-64865000D01*
X69140000Y-65475000D02*
X67190000Y-65475000D01*
X69140000Y-68975000D02*
X69140000Y-65475000D01*
X58240000Y-68975000D02*
X69140000Y-68975000D01*
X58240000Y-65475000D02*
X58240000Y-68975000D01*
X60190000Y-65475000D02*
X58240000Y-65475000D01*
X60190000Y-64865000D02*
X60190000Y-65475000D01*
X59390000Y-64765000D02*
X59090000Y-64765000D01*
X59090000Y-64665000D02*
X59090000Y-64865000D01*
X59390000Y-64665000D02*
X59090000Y-64665000D01*
X59390000Y-64865000D02*
X59390000Y-64665000D01*
X69750000Y-64865000D02*
X57630000Y-64865000D01*
X69750000Y-69585000D02*
X69750000Y-64865000D01*
X57630000Y-69585000D02*
X69750000Y-69585000D01*
X57630000Y-64865000D02*
X57630000Y-69585000D01*
X30420000Y-69910000D02*
X33080000Y-69910000D01*
X30420000Y-57150000D02*
X30420000Y-69910000D01*
X33080000Y-57150000D02*
X33080000Y-69910000D01*
X30420000Y-57150000D02*
X33080000Y-57150000D01*
X30420000Y-55880000D02*
X30420000Y-54550000D01*
X30420000Y-54550000D02*
X31750000Y-54550000D01*
X36140000Y-69270000D02*
X36140000Y-69240000D01*
X36140000Y-62810000D02*
X36140000Y-62840000D01*
X42600000Y-62810000D02*
X42600000Y-62840000D01*
X42600000Y-69240000D02*
X42600000Y-69270000D01*
X36140000Y-67340000D02*
X36140000Y-64740000D01*
X42600000Y-69270000D02*
X36140000Y-69270000D01*
X42600000Y-67340000D02*
X42600000Y-64740000D01*
X42600000Y-62810000D02*
X36140000Y-62810000D01*
D11*
X42672000Y-69215000D02*
X42672000Y-68072000D01*
X42672000Y-68072000D02*
X41529000Y-69215000D01*
D10*
X41910000Y-62230000D02*
X34925000Y-62230000D01*
X34290000Y-61595000D02*
X34290000Y-59690000D01*
D11*
X41910000Y-62230000D02*
X41910000Y-59690000D01*
X41910000Y-59690000D02*
X34290000Y-59690000D01*
X34925000Y-62230000D02*
X34290000Y-61595000D01*
X37465000Y-61595000D02*
X37465000Y-60325000D01*
X38735000Y-61595000D02*
X38735000Y-60325000D01*
X37465000Y-60960000D02*
X36830000Y-60960000D01*
X38735000Y-60960000D02*
X39370000Y-60960000D01*
X71120000Y-64135000D02*
X55880000Y-64135000D01*
X71120000Y-64135000D02*
X71120000Y-50800000D01*
X71120000Y-50800000D02*
X55880000Y-50800000D01*
X55880000Y-50800000D02*
X55880000Y-64135000D01*
X55880000Y-51435000D02*
X56515000Y-50800000D01*
X47926666Y-54697380D02*
X47926666Y-55411666D01*
X47879047Y-55554523D01*
X47783809Y-55649761D01*
X47640952Y-55697380D01*
X47545714Y-55697380D01*
X48879047Y-54697380D02*
X48402857Y-54697380D01*
X48355238Y-55173571D01*
X48402857Y-55125952D01*
X48498095Y-55078333D01*
X48736190Y-55078333D01*
X48831428Y-55125952D01*
X48879047Y-55173571D01*
X48926666Y-55268809D01*
X48926666Y-55506904D01*
X48879047Y-55602142D01*
X48831428Y-55649761D01*
X48736190Y-55697380D01*
X48498095Y-55697380D01*
X48402857Y-55649761D01*
X48355238Y-55602142D01*
X36221904Y-57052380D02*
X36221904Y-56052380D01*
X36460000Y-56052380D01*
X36602857Y-56100000D01*
X36698095Y-56195238D01*
X36745714Y-56290476D01*
X36793333Y-56480952D01*
X36793333Y-56623809D01*
X36745714Y-56814285D01*
X36698095Y-56909523D01*
X36602857Y-57004761D01*
X36460000Y-57052380D01*
X36221904Y-57052380D01*
X37745714Y-57052380D02*
X37174285Y-57052380D01*
X37460000Y-57052380D02*
X37460000Y-56052380D01*
X37364761Y-56195238D01*
X37269523Y-56290476D01*
X37174285Y-56338095D01*
X41171904Y-57052380D02*
X41171904Y-56052380D01*
X41410000Y-56052380D01*
X41552857Y-56100000D01*
X41648095Y-56195238D01*
X41695714Y-56290476D01*
X41743333Y-56480952D01*
X41743333Y-56623809D01*
X41695714Y-56814285D01*
X41648095Y-56909523D01*
X41552857Y-57004761D01*
X41410000Y-57052380D01*
X41171904Y-57052380D01*
X42124285Y-56147619D02*
X42171904Y-56100000D01*
X42267142Y-56052380D01*
X42505238Y-56052380D01*
X42600476Y-56100000D01*
X42648095Y-56147619D01*
X42695714Y-56242857D01*
X42695714Y-56338095D01*
X42648095Y-56480952D01*
X42076666Y-57052380D01*
X42695714Y-57052380D01*
X53641666Y-67397380D02*
X53641666Y-68111666D01*
X53594047Y-68254523D01*
X53498809Y-68349761D01*
X53355952Y-68397380D01*
X53260714Y-68397380D01*
X54641666Y-68397380D02*
X54070238Y-68397380D01*
X54355952Y-68397380D02*
X54355952Y-67397380D01*
X54260714Y-67540238D01*
X54165476Y-67635476D01*
X54070238Y-67683095D01*
X72056666Y-67397380D02*
X72056666Y-68111666D01*
X72009047Y-68254523D01*
X71913809Y-68349761D01*
X71770952Y-68397380D01*
X71675714Y-68397380D01*
X72485238Y-67492619D02*
X72532857Y-67445000D01*
X72628095Y-67397380D01*
X72866190Y-67397380D01*
X72961428Y-67445000D01*
X73009047Y-67492619D01*
X73056666Y-67587857D01*
X73056666Y-67683095D01*
X73009047Y-67825952D01*
X72437619Y-68397380D01*
X73056666Y-68397380D01*
X56181666Y-67397380D02*
X56181666Y-68111666D01*
X56134047Y-68254523D01*
X56038809Y-68349761D01*
X55895952Y-68397380D01*
X55800714Y-68397380D01*
X56562619Y-67397380D02*
X57181666Y-67397380D01*
X56848333Y-67778333D01*
X56991190Y-67778333D01*
X57086428Y-67825952D01*
X57134047Y-67873571D01*
X57181666Y-67968809D01*
X57181666Y-68206904D01*
X57134047Y-68302142D01*
X57086428Y-68349761D01*
X56991190Y-68397380D01*
X56705476Y-68397380D01*
X56610238Y-68349761D01*
X56562619Y-68302142D01*
X33956666Y-55332380D02*
X33956666Y-56046666D01*
X33909047Y-56189523D01*
X33813809Y-56284761D01*
X33670952Y-56332380D01*
X33575714Y-56332380D01*
X34861428Y-55665714D02*
X34861428Y-56332380D01*
X34623333Y-55284761D02*
X34385238Y-55999047D01*
X35004285Y-55999047D01*
X38036666Y-66444761D02*
X38179523Y-66492380D01*
X38417619Y-66492380D01*
X38512857Y-66444761D01*
X38560476Y-66397142D01*
X38608095Y-66301904D01*
X38608095Y-66206666D01*
X38560476Y-66111428D01*
X38512857Y-66063809D01*
X38417619Y-66016190D01*
X38227142Y-65968571D01*
X38131904Y-65920952D01*
X38084285Y-65873333D01*
X38036666Y-65778095D01*
X38036666Y-65682857D01*
X38084285Y-65587619D01*
X38131904Y-65540000D01*
X38227142Y-65492380D01*
X38465238Y-65492380D01*
X38608095Y-65540000D01*
X38941428Y-65492380D02*
X39179523Y-66492380D01*
X39370000Y-65778095D01*
X39560476Y-66492380D01*
X39798571Y-65492380D01*
X40703333Y-66492380D02*
X40131904Y-66492380D01*
X40417619Y-66492380D02*
X40417619Y-65492380D01*
X40322380Y-65635238D01*
X40227142Y-65730476D01*
X40131904Y-65778095D01*
X43013333Y-61317142D02*
X42965714Y-61364761D01*
X42822857Y-61412380D01*
X42727619Y-61412380D01*
X42584761Y-61364761D01*
X42489523Y-61269523D01*
X42441904Y-61174285D01*
X42394285Y-60983809D01*
X42394285Y-60840952D01*
X42441904Y-60650476D01*
X42489523Y-60555238D01*
X42584761Y-60460000D01*
X42727619Y-60412380D01*
X42822857Y-60412380D01*
X42965714Y-60460000D01*
X43013333Y-60507619D01*
X43965714Y-61412380D02*
X43394285Y-61412380D01*
X43680000Y-61412380D02*
X43680000Y-60412380D01*
X43584761Y-60555238D01*
X43489523Y-60650476D01*
X43394285Y-60698095D01*
X62738095Y-56602380D02*
X62738095Y-57411904D01*
X62785714Y-57507142D01*
X62833333Y-57554761D01*
X62928571Y-57602380D01*
X63119047Y-57602380D01*
X63214285Y-57554761D01*
X63261904Y-57507142D01*
X63309523Y-57411904D01*
X63309523Y-56602380D01*
X64309523Y-57602380D02*
X63738095Y-57602380D01*
X64023809Y-57602380D02*
X64023809Y-56602380D01*
X63928571Y-56745238D01*
X63833333Y-56840476D01*
X63738095Y-56888095D01*
M02*
